<svg width="18" height="18" viewBox="0 0 18 18" fill="none" xmlns="http://www.w3.org/2000/svg">
<path d="M4.25391 1.125C3.22031 1.125 2.32031 1.82812 2.0707 2.83008L0.0667969 10.8422C0.0210938 11.0215 0 11.2043 0 11.3871V14.625C0 15.866 1.00898 16.875 2.25 16.875H15.75C16.991 16.875 18 15.866 18 14.625V11.3871C18 11.2043 17.9789 11.0215 17.9332 10.8422L15.9293 2.83008C15.6797 1.82812 14.7797 1.125 13.7461 1.125H4.25391ZM4.25391 3.375H13.7461L15.4336 10.125H13.6336C13.2082 10.125 12.818 10.3641 12.6281 10.7473L12.1254 11.7527C11.9355 12.1324 11.5453 12.375 11.1199 12.375H6.88359C6.4582 12.375 6.06797 12.1359 5.87812 11.7527L5.37539 10.7473C5.18555 10.3676 4.79531 10.125 4.36992 10.125H2.56641L4.25391 3.375Z" fill="white"/>
</svg>
