<svg width="92" height="74" viewBox="0 0 92 74" fill="none" xmlns="http://www.w3.org/2000/svg">
<g clip-path="url(#clip0_369_79)">
<path d="M35.555 61.1002C33.5688 60.9061 31.6863 60.4886 29.8401 59.8716C26.5098 58.7565 23.5177 57.0792 21.075 54.5103C18.5759 51.8827 17.0881 48.7297 16.4696 45.1591C15.9131 41.9383 16.1386 38.7999 17.4773 35.7768C18.7123 32.9845 20.6167 30.7542 23.1285 29.0788C26.106 27.094 29.3836 25.9752 32.9886 26.0539C36.2734 26.1272 39.2746 27.1581 41.8883 29.1502C46.9575 33.0119 49.3456 38.2451 49.4402 44.5915C49.5275 50.3098 48.2161 55.7645 46.3663 61.1185C45.7224 62.9825 44.9458 64.7916 44.08 66.5604C43.9527 66.8186 43.8617 67.117 43.578 67.3056C43.3925 67.0877 43.5616 66.9065 43.618 66.7325C44.4529 64.1617 45.2095 61.5671 45.6133 58.8883C46.1335 55.4331 46.1826 51.9907 44.9822 48.6381C44.2746 46.6642 43.1597 45.0145 41.2244 44.066C38.4779 42.7201 35.2003 44.0257 34.0217 46.9132C32.9977 49.4236 33.2669 51.7875 34.7893 54.0159C34.8384 54.0891 34.8857 54.1642 35.0021 54.3455C34.3018 54.0726 33.7816 53.7247 33.3069 53.3219C30.9351 51.3059 29.6819 48.6967 29.2908 45.6279C29.0853 44.022 29.1999 42.4382 29.5 40.858C29.5346 40.6804 29.6146 40.4936 29.5036 40.3105C27.9703 41.5043 27.4156 47.393 28.5287 50.2787C29.8365 53.6716 32.3647 55.9293 35.3185 57.819C30.8332 56.6343 27.0172 54.4517 24.6509 50.2824C22.2809 46.1076 22.4428 41.6581 23.5869 37.1171C23.2831 37.227 23.1904 37.4467 23.0885 37.6353C20.8404 41.8596 20.473 46.2065 22.3919 50.6394C23.6123 53.4611 25.7004 55.5723 28.1795 57.3081C29.9893 58.577 31.9573 59.5512 33.9871 60.4044C34.5019 60.6205 35.0712 60.712 35.555 61.102V61.1002Z" fill="white"/>
<path d="M47.638 5.52435C46.6012 6.3941 45.8846 7.47259 45.6245 8.7708C44.9952 11.9056 46.0829 14.1742 49.4241 15.2948C51.414 15.9632 53.4947 16.2158 55.5628 16.5198C58.0765 16.8878 60.5956 17.2724 62.8692 18.501C65.6302 19.9933 67.2508 22.3608 67.8219 25.437C68.3276 28.1616 67.7474 30.7763 66.8689 33.3398C65.663 36.8573 63.9059 40.1074 62.0361 43.2952C58.4093 49.4805 54.3987 55.4204 50.5846 61.4867C48.0672 65.4875 45.61 69.525 43.2782 73.6394C43.2218 73.7382 43.1709 73.8371 43.1054 73.9305C43.0599 73.9964 42.9817 74.022 42.909 73.9799C42.8289 73.9342 42.8417 73.8518 42.8708 73.7822C42.9435 73.6101 43.0217 73.4398 43.1018 73.2713C45.9337 67.1629 48.6166 60.9941 50.4572 54.4921C51.2557 51.6704 51.8178 48.8012 52.1124 45.8752C52.3743 43.2824 52.3907 40.6988 52.1961 38.106C51.8068 32.9022 50.0935 28.1927 47.1669 23.8916C45.65 21.6632 44.0657 19.4513 43.1418 16.886C41.4993 12.323 42.6798 8.24163 47.0814 5.60675C47.236 5.51336 47.3997 5.40899 47.638 5.52618V5.52435Z" fill="white"/>
<path d="M92 73.8241C91.387 73.8241 90.865 73.8241 90.3412 73.8241C80.8213 73.8241 71.2995 73.8205 61.7796 73.837C61.2666 73.837 61.0866 73.7527 61.0884 73.1778C61.1102 65.5899 61.1084 58.0002 61.092 50.4123C61.092 49.8758 61.1902 49.8063 61.7032 49.9619C67.509 51.7399 72.8474 54.4425 77.7456 58.046C81.7834 61.0178 85.3266 64.4986 88.3932 68.4683C89.6882 70.1437 90.8923 71.8851 92.0018 73.8223L92 73.8241Z" fill="#C01428"/>
<path d="M0 73.8132C0.571124 72.7164 1.24047 71.7697 1.88616 70.8103C3.60863 68.2486 5.56936 65.8774 7.7229 63.6802C10.5385 60.8073 13.6288 58.2603 17.03 56.1106C17.4393 55.8524 17.854 55.4002 18.2632 55.4038C18.6579 55.4075 18.898 56.0301 19.2236 56.3633C22.3557 59.5768 26.1807 61.558 30.4423 62.7555C30.7788 62.8507 30.8771 62.9734 30.8752 63.3213C30.8607 66.6355 30.8534 69.9497 30.8825 73.262C30.8861 73.7766 30.7006 73.8224 30.275 73.8224C23.7671 73.8095 17.2574 73.8132 10.7495 73.8132C7.19543 73.8132 3.64319 73.8132 0 73.8132Z" fill="#021F35"/>
<path d="M32.7303 3.31233C33.7926 3.54121 34.8293 3.8415 35.9079 3.93122C39.4074 4.2187 42.4594 3.17866 45.0841 0.842245C45.4169 0.545615 45.7007 -0.038489 46.0644 0.0036251C46.43 0.0457392 46.5683 0.681113 46.8047 1.05648C47.1739 1.64424 47.5013 2.25765 47.8724 2.84358C48.0579 3.13655 48.0015 3.29402 47.7232 3.47712C45.1386 5.18183 42.3776 6.31159 39.22 6.17975C36.77 6.07721 34.6729 5.10126 32.8104 3.5467C32.7831 3.5229 32.7558 3.49177 32.7431 3.45881C32.7303 3.42769 32.7358 3.3874 32.7285 3.31416L32.7303 3.31233Z" fill="white"/>
<path d="M48.2908 6.76025C48.3872 7.56042 48.5509 8.29834 48.962 8.96301C49.393 9.66064 49.9623 10.1861 50.7335 10.4443C51.0537 10.5505 51.1428 10.7043 51.0937 11.0119C50.9845 11.6968 50.8718 12.3834 50.7899 13.0719C50.7535 13.374 50.6499 13.4454 50.3588 13.3777C48.5945 12.9584 47.4305 11.4239 47.4905 9.57274C47.5251 8.50707 47.8379 7.37182 48.289 6.76025H48.2908Z" fill="white"/>
</g>
<defs>
<clipPath id="clip0_369_79">
<rect width="92" height="74" fill="white"/>
</clipPath>
</defs>
</svg>
