<svg width="42" height="42" viewBox="0 0 42 42" fill="none" xmlns="http://www.w3.org/2000/svg">
<g clip-path="url(#clip0_338_534)">
<path d="M39.312 0H2.688C1.20346 0 0 1.20346 0 2.688V39.312C0 40.7965 1.20346 42 2.688 42H39.312C40.7965 42 42 40.7965 42 39.312V2.688C42 1.20346 40.7965 0 39.312 0Z" fill="url(#paint0_linear_338_534)"/>
<g filter="url(#filter0_d_338_534)">
<path d="M22.6258 18.5019C22.5356 18.9233 23.0628 19.1909 23.3498 18.8695L26.8712 14.9243C26.9509 14.8351 27.0649 14.7841 27.1845 14.7841H28.1888C28.5548 14.7841 28.7457 15.2199 28.4974 15.4889L25.0607 19.2133C24.9521 19.3311 24.9199 19.5003 24.9777 19.6498L27.5557 26.3084C27.6622 26.5836 27.4592 26.8801 27.164 26.8801H23.9345C23.7513 26.8801 23.5892 26.7613 23.534 26.5865L22.4321 23.0964C22.302 22.6847 21.7101 22.7135 21.6206 23.1358L20.8986 26.547C20.8575 26.7412 20.6861 26.8801 20.4876 26.8801H17.2346C16.9675 26.8801 16.7682 26.6339 16.8238 26.3726L19.2152 15.1357C19.2565 14.9417 19.4277 14.803 19.626 14.803H22.8979C23.1652 14.803 23.3646 15.0495 23.3086 15.311L22.6258 18.5019Z" fill="#EEEEEE"/>
</g>
<g filter="url(#filter1_d_338_534)">
<mask id="mask0_338_534" style="mask-type:alpha" maskUnits="userSpaceOnUse" x="9" y="7" width="11" height="27">
<path d="M19.2833 9.33629L15.269 8.4939L10.2884 32.2281L14.3027 33.0705L19.2833 9.33629Z" fill="#D9D9D9" stroke="url(#paint1_linear_338_534)"/>
</mask>
<g mask="url(#mask0_338_534)">
<path d="M27.6427 20.7665L24.7273 20.1546C24.7532 19.7663 24.7148 19.4084 24.612 19.0811C24.5102 18.7494 24.3526 18.4522 24.1389 18.1896C23.9253 17.9271 23.6616 17.7049 23.3476 17.5232C23.038 17.3424 22.688 17.2111 22.2976 17.1291C21.592 16.9811 20.9406 17.0274 20.3435 17.268C19.7472 17.5043 19.235 17.925 18.8069 18.53C18.3797 19.1307 18.067 19.9036 17.8686 20.8488C17.6647 21.8206 17.6376 22.6674 17.7873 23.389C17.9413 24.1117 18.2448 24.6966 18.6977 25.1437C19.1505 25.5908 19.7209 25.8865 20.4087 26.0309C20.7947 26.1119 21.1627 26.1358 21.5124 26.1026C21.8667 26.0705 22.193 25.9837 22.4913 25.8425C22.7906 25.6968 23.0543 25.4997 23.2826 25.251C23.5152 25.0033 23.703 24.7045 23.846 24.3547L26.7585 24.9798C26.5518 25.5897 26.2366 26.1535 25.8128 26.6715C25.3945 27.186 24.8844 27.6187 24.2826 27.9696C23.6862 28.317 23.0117 28.5507 22.2592 28.6708C21.512 28.7873 20.7013 28.7538 19.8271 28.5704C18.6112 28.3153 17.5818 27.812 16.7388 27.0607C15.9002 26.3102 15.313 25.3554 14.9771 24.1962C14.6458 23.0379 14.6355 21.7177 14.9466 20.2356C15.2585 18.749 15.8035 17.543 16.5814 16.6176C17.3594 15.6921 18.2848 15.0571 19.3578 14.7124C20.4319 14.3633 21.5679 14.3144 22.766 14.5658C23.5558 14.7316 24.2647 14.9962 24.8927 15.3596C25.525 15.7239 26.0583 16.174 26.4925 16.7099C26.9277 17.2414 27.2452 17.8477 27.4451 18.529C27.6494 19.2112 27.7152 19.957 27.6427 20.7665Z" fill="#EEEEEE"/>
</g>
<mask id="mask1_338_534" style="mask-type:alpha" maskUnits="userSpaceOnUse" x="7" y="9" width="11" height="27">
<path d="M17.1559 10.9158L13.5513 10.1594L8.57067 33.8936L12.1753 34.65L17.1559 10.9158Z" fill="#D9D9D9" stroke="url(#paint2_linear_338_534)"/>
</mask>
<g mask="url(#mask1_338_534)">
<path d="M23.839 20.2695L21.4351 19.7651C21.4565 19.4449 21.4247 19.1498 21.3401 18.8799C21.2562 18.6063 21.1261 18.3613 20.95 18.1448C20.7738 17.9283 20.5564 17.7452 20.2975 17.5953C20.0422 17.4463 19.7536 17.3379 19.4317 17.2704C18.8499 17.1483 18.3128 17.1865 17.8204 17.385C17.3287 17.5798 16.9064 17.9266 16.5534 18.4256C16.2011 18.9208 15.9432 19.5581 15.7797 20.3375C15.6115 21.1388 15.5892 21.837 15.7126 22.4321C15.8397 23.0279 16.0899 23.5102 16.4634 23.8789C16.8367 24.2476 17.307 24.4915 17.8741 24.6104C18.1925 24.6773 18.4958 24.6969 18.7843 24.6696C19.0764 24.6431 19.3454 24.5715 19.5914 24.4551C19.8382 24.335 20.0556 24.1724 20.2438 23.9674C20.4356 23.7632 20.5905 23.5168 20.7084 23.2283L23.11 23.7438C22.9395 24.2466 22.6796 24.7115 22.3302 25.1387C21.9852 25.5629 21.5646 25.9197 21.0684 26.209C20.5767 26.4954 20.0205 26.6882 19.4 26.7872C18.7839 26.8833 18.1154 26.8557 17.3946 26.7044C16.3921 26.494 15.5432 26.0791 14.8481 25.4596C14.1566 24.8407 13.6725 24.0534 13.3955 23.0976C13.1223 22.1426 13.1139 21.0539 13.3703 19.8319C13.6275 18.6061 14.0768 17.6117 14.7184 16.8485C15.3598 16.0855 16.1229 15.5618 17.0077 15.2777C17.8932 14.9898 18.83 14.9495 19.8178 15.1568C20.4692 15.2935 21.0537 15.5117 21.5715 15.8113C22.0929 16.1117 22.5326 16.4829 22.8906 16.9247C23.2495 17.363 23.5113 17.8629 23.6761 18.4246C23.8445 18.9872 23.8989 19.6021 23.839 20.2695Z" fill="#EEEEEE"/>
</g>
<mask id="mask2_338_534" style="mask-type:alpha" maskUnits="userSpaceOnUse" x="6" y="12" width="10" height="26">
<path d="M14.7054 13.6249L12.002 13.0576L7.02136 36.7918L9.72475 37.3591L14.7054 13.6249Z" fill="#D9D9D9" stroke="url(#paint3_linear_338_534)"/>
</mask>
<g mask="url(#mask2_338_534)">
<path d="M19.0719 19.9484L17.4351 19.605C17.4497 19.387 17.4282 19.186 17.3704 19.0023C17.3133 18.816 17.2248 18.6492 17.1048 18.5018C16.9849 18.3544 16.8368 18.2297 16.6606 18.1277C16.4868 18.0262 16.2903 17.9524 16.071 17.9065C15.675 17.8233 15.3093 17.8494 14.974 17.9844C14.6393 18.1171 14.3517 18.3533 14.1114 18.693C13.8716 19.0301 13.696 19.4641 13.5846 19.9947C13.4702 20.5403 13.455 21.0157 13.539 21.4208C13.6255 21.8265 13.7959 22.1549 14.0501 22.4058C14.3044 22.6568 14.6245 22.8229 15.0106 22.904C15.2274 22.9494 15.4339 22.9629 15.6303 22.9442C15.8292 22.9261 16.0123 22.8774 16.1798 22.7981C16.3478 22.7164 16.4959 22.6057 16.624 22.4662C16.7546 22.3271 16.8601 22.1593 16.9404 21.9629L18.5755 22.3139C18.4594 22.6563 18.2824 22.9728 18.0445 23.2636C17.8097 23.5524 17.5233 23.7954 17.1855 23.9924C16.8507 24.1873 16.472 24.3186 16.0495 24.386C15.63 24.4514 15.1749 24.4326 14.6842 24.3296C14.0015 24.1864 13.4236 23.9038 12.9504 23.4821C12.4796 23.0607 12.1499 22.5247 11.9613 21.8739C11.7753 21.2236 11.7696 20.4825 11.9442 19.6505C12.1194 18.8159 12.4253 18.1388 12.862 17.6193C13.2988 17.0997 13.8183 16.7432 14.4207 16.5497C15.0237 16.3537 15.6614 16.3263 16.3341 16.4674C16.7775 16.5605 17.1755 16.7091 17.5279 16.913C17.883 17.1175 18.1824 17.3703 18.4262 17.6711C18.6704 17.9695 18.8487 18.3098 18.9609 18.6924C19.0756 19.0753 19.1126 19.4941 19.0719 19.9484Z" fill="#EEEEEE"/>
</g>
</g>
</g>
<defs>
<filter id="filter0_d_338_534" x="12.8145" y="14.7841" width="19.7949" height="20.0959" filterUnits="userSpaceOnUse" color-interpolation-filters="sRGB">
<feFlood flood-opacity="0" result="BackgroundImageFix"/>
<feColorMatrix in="SourceAlpha" type="matrix" values="0 0 0 0 0 0 0 0 0 0 0 0 0 0 0 0 0 0 127 0" result="hardAlpha"/>
<feOffset dy="4"/>
<feGaussianBlur stdDeviation="2"/>
<feComposite in2="hardAlpha" operator="out"/>
<feColorMatrix type="matrix" values="0 0 0 0 0 0 0 0 0 0 0 0 0 0 0 0 0 0 0.25 0"/>
<feBlend mode="normal" in2="BackgroundImageFix" result="effect1_dropShadow_338_534"/>
<feBlend mode="normal" in="SourceGraphic" in2="effect1_dropShadow_338_534" result="shape"/>
</filter>
<filter id="filter1_d_338_534" x="7.81738" y="14.408" width="16.0581" height="22.3307" filterUnits="userSpaceOnUse" color-interpolation-filters="sRGB">
<feFlood flood-opacity="0" result="BackgroundImageFix"/>
<feColorMatrix in="SourceAlpha" type="matrix" values="0 0 0 0 0 0 0 0 0 0 0 0 0 0 0 0 0 0 127 0" result="hardAlpha"/>
<feOffset dy="4"/>
<feGaussianBlur stdDeviation="2"/>
<feComposite in2="hardAlpha" operator="out"/>
<feColorMatrix type="matrix" values="0 0 0 0 0 0 0 0 0 0 0 0 0 0 0 0 0 0 0.25 0"/>
<feBlend mode="normal" in2="BackgroundImageFix" result="effect1_dropShadow_338_534"/>
<feBlend mode="normal" in="SourceGraphic" in2="effect1_dropShadow_338_534" result="shape"/>
</filter>
<linearGradient id="paint0_linear_338_534" x1="21" y1="0" x2="21" y2="42" gradientUnits="userSpaceOnUse">
<stop stop-color="#212121"/>
<stop offset="1" stop-color="#0B0B0B"/>
</linearGradient>
<linearGradient id="paint1_linear_338_534" x1="17.2957" y1="8.86838" x2="12.2978" y2="32.6848" gradientUnits="userSpaceOnUse">
<stop stop-color="#212121"/>
<stop offset="1" stop-color="#0B0B0B"/>
</linearGradient>
<linearGradient id="paint2_linear_338_534" x1="15.3731" y1="10.4909" x2="10.3753" y2="34.3072" gradientUnits="userSpaceOnUse">
<stop stop-color="#212121"/>
<stop offset="1" stop-color="#0B0B0B"/>
</linearGradient>
<linearGradient id="paint3_linear_338_534" x1="13.3732" y1="13.2946" x2="8.37539" y2="37.1109" gradientUnits="userSpaceOnUse">
<stop stop-color="#212121"/>
<stop offset="1" stop-color="#0B0B0B"/>
</linearGradient>
<clipPath id="clip0_338_534">
<rect width="42" height="42" fill="white"/>
</clipPath>
</defs>
</svg>
