<svg width="20" height="23" viewBox="0 0 20 23" fill="none" xmlns="http://www.w3.org/2000/svg">
<g clip-path="url(#clip0_338_581)">
<path d="M10.0001 0.0710449C9.20994 0.0710449 8.57155 0.685498 8.57155 1.44604V2.27104C5.31262 2.90698 2.85726 5.68276 2.85726 9.00854V9.81636C2.85726 11.8359 2.08494 13.7867 0.692086 15.2992L0.361729 15.6558C-0.0132708 16.0597 -0.102557 16.6398 0.125122 17.1339C0.352801 17.6281 0.866193 17.946 1.42869 17.946H18.5716C19.1341 17.946 19.643 17.6281 19.8751 17.1339C20.1073 16.6398 20.0135 16.0597 19.6385 15.6558L19.3082 15.2992C17.9153 13.7867 17.143 11.8402 17.143 9.81636V9.00854C17.143 5.68276 14.6876 2.90698 11.4287 2.27104V1.44604C11.4287 0.685498 10.7903 0.0710449 10.0001 0.0710449ZM12.0224 21.2675C12.5582 20.7519 12.8573 20.0515 12.8573 19.321H10.0001H7.14298C7.14298 20.0515 7.44209 20.7519 7.9778 21.2675C8.51351 21.7832 9.24119 22.071 10.0001 22.071C10.7591 22.071 11.4867 21.7832 12.0224 21.2675Z" fill="#EEEEEE"/>
<circle cx="16" cy="5" r="3.5" fill="#FF0000" stroke="#212121"/>
</g>
<defs>
<clipPath id="clip0_338_581">
<rect width="20" height="22" fill="white" transform="translate(0 0.0710449)"/>
</clipPath>
</defs>
</svg>
