<svg width="158" height="60" viewBox="0 0 158 60" fill="none" xmlns="http://www.w3.org/2000/svg">
<g clip-path="url(#clip0_369_16)">
<path d="M36.9342 41.9232C34.8287 41.0756 32.8039 41.8649 30.8062 42.1116C30.1911 42.1878 30.0115 43.2508 29.6838 43.8876C27.9554 47.2424 23.8117 49.2248 20.0944 48.4265C18.7611 48.1394 17.6432 48.274 16.5523 49.2965C15.412 50.364 14.0023 51.1444 12.3143 50.9919C11.614 50.9291 11.1471 51.1488 10.7879 51.7543C10.2851 52.611 9.51742 53.2792 8.57464 53.4407C6.07404 53.8712 3.59141 53.4945 1.16264 52.8621C0.394951 52.6648 -0.0225631 51.8306 -0.000116124 51.1488C0.0492673 49.6105 0.0133521 47.8075 1.09081 46.7266C2.43314 45.3812 3.64977 43.8338 5.37819 42.8606C6.41075 42.2775 7.37597 42.0981 8.34119 42.8337C9.13133 43.4392 9.44559 43.2239 9.69699 42.3403C10.2627 40.349 11.5017 39.1919 13.7105 39.2547C14.8912 39.2905 15.1471 38.8106 14.8912 37.5549C14.5096 35.7026 14.0786 34.7203 11.7486 34.6755C8.48036 34.6082 5.83611 32.8591 4.72722 29.5805C3.56896 26.145 4.64193 23.2119 7.22333 20.772C7.50616 20.5074 7.80695 20.2607 8.20202 19.9154C6.72501 19.0229 5.27044 18.2066 4.4399 16.6862C3.60038 15.1434 3.25919 13.5422 3.88771 11.8559C4.45786 10.322 5.94385 9.6672 7.25476 10.6225C8.91584 11.8335 10.8193 12.1519 12.6824 12.708C17.0417 14.0042 18.1864 18.3008 15.0214 21.5973C13.9036 22.7634 12.6241 23.7815 11.4389 24.8892C10.5724 25.701 9.91697 26.6294 10.6443 27.8359C11.4299 29.141 12.6286 28.8719 13.7734 28.4593C15.421 27.8673 16.898 26.9613 18.2358 25.8311C20.4401 23.9698 22.9452 22.8889 25.8543 22.7051C27.2281 22.6198 28.4358 22.0996 29.4414 21.0815C31.2731 19.2202 33.4549 18.0631 36.1396 18.0721C36.6334 18.0721 37.0105 17.9016 37.3158 17.5473C38.9993 15.5919 41.262 14.6814 43.6548 13.9862C45.1678 13.5467 46.5729 12.865 47.8704 11.959C50.0612 10.4297 52.4585 10.1785 54.9053 11.1159C55.9513 11.515 56.5125 11.2594 57.1904 10.4924C61.8593 5.25846 67.6058 1.83642 74.5958 0.863174C85.2042 -0.612386 94.3177 2.37462 101.55 10.4431C102.479 11.4791 103 12.1295 104.495 10.9589C106.269 9.56853 108.468 10.1022 110.417 10.9768C111.638 11.524 112.845 12.2102 113.622 13.3494C114.111 14.067 114.852 14.1073 115.526 14.2553C118.085 14.816 120.455 15.7264 122.39 17.5653C122.511 17.6819 122.646 17.8523 122.785 17.8658C127.216 18.229 130.197 22.0861 134.646 22.6288C137.622 22.9921 139.939 25.1942 142.426 26.7999C143.553 27.5264 144.671 28.2709 146.116 28.2261C147.908 28.1723 148.334 27.4367 147.427 25.867C146.857 24.8803 145.932 24.2075 145.187 23.3823C144.361 22.4718 143.459 21.6062 142.763 20.6061C141.124 18.247 141.51 15.8968 143.715 14.0759C144.855 13.1341 146.179 12.5241 147.584 12.125C148.711 11.8021 149.793 11.515 150.794 10.7929C152.002 9.92285 153.304 10.5463 153.802 12.0173C154.871 15.1613 153.439 18.3457 150.117 19.9827C151.661 21.6511 153.057 23.4047 153.668 25.6068C154.768 29.5761 151.984 33.6978 147.692 34.4961C146.889 34.6486 145.717 34.3795 145.38 35.106C144.909 36.1286 144.9 37.3755 144.752 38.5326C144.684 39.0528 145.169 38.9497 145.461 38.9587C147.472 39.0125 148.455 40.1965 148.922 42.004C149.03 42.4211 148.981 43.2463 149.775 42.8382C151.629 41.8829 152.936 42.8516 154.054 44.0715C155.54 45.6906 157.596 46.767 157.897 49.4535C158.211 52.2163 157.807 53.3824 154.947 53.5304C153.591 53.6021 152.101 53.8219 150.817 53.4496C148.375 52.741 146.166 51.3417 143.544 51.0457C142.817 50.965 142.179 50.1218 141.483 49.6553C140.119 48.7314 138.592 48.4713 136.994 48.6821C133.425 49.153 130.197 47.1886 129.124 43.7127C128.769 42.5601 128.352 42.1564 127.005 42.134C124.769 42.0937 122.552 41.7035 120.361 42.3807C121.842 45.0537 121.375 47.072 118.686 48.8929C118.161 49.2472 117.977 49.7271 117.681 50.1711C116.513 51.9068 114.951 52.4943 112.926 52.0638C110.093 51.4673 107.467 50.2339 104.688 49.4849C104.58 49.458 104.45 49.4132 104.392 49.3369C102.776 47.1348 101.99 49.0409 101.061 50.0276C89.2986 62.5362 69.9852 62.6887 58.0389 50.355C57.6887 49.9917 57.3565 49.6105 57.0018 49.2517C56.1488 48.3995 55.3497 47.1393 54.2049 48.9871C54.0298 49.2696 53.5495 49.4715 53.1858 49.5118C50.4697 49.8078 48.1083 51.2027 45.5359 51.9382C43.2238 52.602 41.5403 52.0907 40.0364 50.2025C39.7984 49.9065 39.7356 49.3907 39.2956 49.3504C37.4101 49.1754 36.7815 47.6909 36.0363 46.314C34.9723 44.3451 35.1384 43.475 36.9207 41.9277L36.9342 41.9232ZM70.3982 40.0978C71.7495 40.4746 72.1625 41.7259 72.8314 42.726C74.084 44.5963 75.5924 45.3498 77.3074 44.825C76.607 44.1343 75.6553 43.8697 75.0717 43.0893C72.4723 39.6 70.4251 35.8999 69.828 31.4911C69.5901 29.742 69.5003 27.9256 68.5037 26.3379C65.2309 21.1174 60.755 17.0943 55.7583 13.6185C53.976 12.3806 51.7986 11.8693 49.8816 13.0579C47.3227 14.6455 44.5886 15.704 41.7827 16.6728C40.5886 17.0854 39.6548 17.8972 38.7883 18.7897C38.1508 19.4445 37.4505 20.0813 36.4852 20.0186C34.0924 19.8661 32.2742 20.9559 30.6625 22.5346C29.4548 23.7142 28.0586 24.4049 26.3437 24.5215C23.5064 24.7098 21.0821 25.858 18.9272 27.7238C17.3514 29.0872 15.5063 30.0694 13.4367 30.5179C11.4254 30.9574 9.82718 30.3071 8.94277 28.7822C8.02244 27.19 8.27385 25.3871 9.76433 23.8846C10.9046 22.732 12.1931 21.7318 13.3514 20.5926C15.9822 18.0048 15.2459 15.3542 11.6723 14.372C10.2267 13.9728 8.68239 13.9055 7.38944 12.9816C6.94499 12.6677 6.4332 11.9007 5.82264 12.4883C5.34227 12.9502 5.39165 13.6947 5.56674 14.3899C6.10547 16.5382 7.789 17.9106 10.0247 18.0048C10.7071 18.0362 11.6364 17.7222 11.9237 18.6372C12.2066 19.5431 11.2593 19.8167 10.7475 20.2742C9.57578 21.3147 8.31874 22.2566 7.35801 23.5213C5.35574 26.172 5.99773 29.9797 8.77217 31.7872C10.5814 32.9667 12.5523 33.1237 14.5859 32.6169C15.7352 32.3298 16.2605 32.5496 16.1887 33.8547C16.1213 35.0298 16.4131 36.1869 16.7813 37.3127C17.5355 39.6045 16.6601 40.9455 14.2268 41.2236C13.9485 41.255 13.6656 41.2684 13.3873 41.246C12.5253 41.1742 11.9148 41.5913 11.7352 42.3672C11.0034 45.4664 8.21998 46.6056 6.08302 48.3457C5.18963 49.0723 4.85293 50.0007 5.01455 50.9919C5.17167 51.9247 6.18628 51.6377 6.8552 51.7364C8.15713 51.9292 8.98318 51.1847 9.55333 50.1397C9.99778 49.3279 10.541 48.709 11.5332 48.9871C13.2346 49.4625 14.5321 48.6507 15.6095 47.5923C16.889 46.332 18.3166 46.1391 19.9373 46.4396C23.8566 47.1751 26.9094 45.5606 28.5659 41.8604C28.7455 41.4613 29.1226 40.9948 28.6333 40.6585C28.0003 40.2234 27.7713 40.8782 27.5199 41.2774C26.0384 43.6186 23.8431 44.677 21.145 44.6636C17.8632 44.6456 14.779 45.1165 12.3233 47.5609C12.2919 47.5923 12.1437 47.4981 11.9731 47.4353C12.6645 45.6323 14.1954 44.8699 15.8475 44.3092C17.2886 43.8159 18.8105 43.7666 20.3189 43.6769C24.5165 43.4302 26.8959 41.2415 27.502 37.0884C27.6232 36.2587 27.7534 35.429 27.906 34.6082C27.9644 34.2898 28.0452 33.8682 28.4762 33.9265C28.9745 33.9893 28.8218 34.4288 28.7455 34.7248C28.4627 35.7743 28.4851 36.8417 28.5974 37.8957C28.7365 39.2412 29.4459 40.1965 30.9004 39.9678C33.8769 39.5013 36.795 39.7929 39.7356 40.2369C41.0869 40.4432 42.299 40.3131 41.657 38.3577C41.5673 38.0841 41.5673 37.658 42.2048 37.5997C42.8737 39.7884 44.5213 41.1294 46.4787 42.2192C47.0398 42.5332 47.5067 43.1028 47.8794 43.6455C48.8176 45.0134 48.4675 46.2064 46.986 46.9599C44.8984 48.0228 43.9511 47.7358 42.528 45.6054C41.1363 43.5244 40.2294 43.1835 38.0521 43.8921C37.7288 43.9998 37.3921 44.0267 37.3427 44.4617C37.2754 45.0268 38.8242 47.3187 39.3899 47.2873C40.5033 47.229 40.9432 47.8703 41.4146 48.709C42.1868 50.0904 43.3271 50.5613 44.9567 50.1128C47.4798 49.4176 49.7425 47.8972 52.4361 47.7447C52.6875 47.7313 52.9569 47.5339 53.1589 47.3545C54.9277 45.7534 55.2554 43.5468 54.0747 41.5196C53.765 40.9903 53.5091 40.4252 53.2352 39.8736C53.0646 39.5282 52.9748 39.1156 52.5663 38.9452C52.1622 38.7793 51.7402 38.4249 51.3137 38.7344C50.775 39.1201 51.2419 39.5462 51.4125 39.914C51.8255 40.8334 52.3059 41.7214 52.7144 42.6408C53.4687 44.3406 53.1724 45.278 51.3137 46.5159C52.6426 44.1837 51.2599 42.4928 50.2094 40.7213C50.0073 40.3849 49.8726 40.0081 49.6482 39.6897C48.7682 38.4429 49.2935 37.8464 50.5999 37.6939C51.9602 37.5369 52.6785 36.6982 53.1185 35.5321C53.5046 34.514 53.8547 33.487 54.3531 32.0742C54.6314 33.8861 54.582 35.2227 53.9625 36.5323C53.7425 36.9987 53.105 37.519 53.6258 38.0213C54.0837 38.4653 54.8245 38.3218 55.3856 38.0617C56.6831 37.4607 58.0703 37.5818 59.7044 37.2813C58.7213 38.8106 58.4294 40.3849 57.123 41.4254C56.7414 41.7304 56.0007 42.5152 56.8492 42.8427C57.8952 43.2463 57.3161 43.6275 57.0781 44.0357C56.517 44.982 56.692 45.9328 57.2263 46.7356C57.783 47.5743 58.7392 47.3725 59.5338 47.0765C61.5451 46.3365 63.5608 45.7265 65.7517 46.0135C66.3218 46.0898 66.892 45.8072 67.2915 45.426C68.571 44.2016 69.5138 44.5873 70.6676 45.74C71.8932 46.9644 73.5138 47.4218 75.3859 46.915C72.2433 45.731 71.5879 42.744 70.2186 40.3086C70.286 40.2458 70.3533 40.1786 70.4206 40.1068L70.3982 40.0978ZM130.722 40.1427C130.116 43.8966 133.021 47.4129 136.253 46.8791C139.221 46.3903 141.663 47.2021 143.899 49.0095C144.604 49.5836 145.43 49.9514 146.229 49.5791C147.562 48.9602 148.307 49.5253 149.053 50.5254C149.843 51.5839 151.014 51.6826 152.236 51.6108C152.918 51.5704 153.147 51.2341 152.972 50.6286C152.716 49.7406 152.433 49.014 151.553 48.3368C149.694 46.906 147.647 45.4529 147.18 42.874C146.916 41.4164 146.224 40.8244 144.671 40.8603C142.844 40.9007 142.265 39.887 142.875 38.0751C143.261 36.9359 143.382 35.7833 143.221 34.5992C142.924 32.4599 142.907 32.5362 145.026 32.7335C147.531 32.9667 149.627 32.1729 151.163 30.0425C152.622 28.0198 152.024 26.1226 150.983 24.23C150.134 22.6871 148.945 21.4358 147.558 20.3504C147.127 20.0141 146.538 19.6867 146.673 19.0363C146.826 18.3008 147.526 18.4802 148.056 18.3995C151.365 17.8972 152.698 15.8385 151.796 12.4658C150.844 13.2507 149.726 13.5333 148.581 13.8248C147.562 14.0849 146.565 14.5289 145.65 15.0492C143.414 16.3229 143.113 17.9913 144.734 20.023C145.358 20.8079 146.094 21.5031 146.812 22.2072C147.858 23.2298 148.882 24.2658 149.47 25.6338C150.399 27.7955 149.169 29.89 146.821 30.1457C145.56 30.2802 144.343 30.0694 143.243 29.455C142.071 28.8046 140.895 28.1319 139.809 27.3515C137.313 25.562 134.637 24.2389 131.575 23.7545C130.341 23.5572 129.236 23.028 128.235 22.261C126.709 21.0949 125.075 20.1621 123.09 19.9468C122.385 19.8705 121.721 19.5835 121.155 19.0319C119.454 17.3769 117.321 16.5113 115.036 16.0897C113.757 15.852 112.819 15.3273 111.93 14.345C109.483 11.6361 106.628 11.5374 103.894 13.8203C102.56 14.9326 101.227 16.0762 99.7454 16.9643C93.0831 20.9783 88.9215 26.5801 87.6195 34.3884C86.9596 38.3532 85.6981 42.2641 82.0841 44.7936C81.927 44.9057 81.7564 45.1524 81.7698 45.3184C81.8013 45.6996 82.1694 45.6323 82.4253 45.6368C83.7227 45.6592 84.661 45.0403 85.3524 43.9818C85.7205 43.4212 86.0707 42.8382 86.5196 42.3403C86.9551 41.856 87.2065 41.1114 88.3648 40.8558C86.9955 43.2463 86.1066 45.5112 83.7407 47.2918C86.367 47.5384 87.7901 46.2916 89.1325 44.9775C89.8193 44.3048 90.3446 44.1074 91.0719 44.8744C91.6286 45.4619 92.3334 45.7893 93.1954 45.6458C94.9822 45.3453 96.6118 45.8521 98.2415 46.5428C100.289 47.4084 101.119 46.8433 101.263 44.6187C101.29 44.242 101.137 43.7396 101.68 43.6679C103.027 43.4885 102.529 42.726 102.138 42.1385C101.128 40.6046 100.491 38.8241 99.0765 37.5459C98.7443 37.2454 98.3268 36.8238 98.7488 36.0703C100.14 37.1377 101.586 38.0258 103.386 38.1558C105.631 38.3173 105.739 38.2366 104.967 36.1735C104.244 34.236 103.889 32.276 104.482 29.9169C105.236 30.8946 105.146 31.7289 105.231 32.5272C105.465 34.7786 106.071 36.7969 108.329 37.9271C109.398 38.4608 109.519 39.2995 108.801 40.2862C107.678 41.829 106.376 43.2956 106.583 45.7803C105.514 44.2195 105.451 43.0624 106.318 41.8694C106.713 41.3267 107.072 40.7571 107.418 40.1831C107.642 39.8108 107.983 39.3802 107.427 39.0259C106.87 38.6716 106.358 38.7613 106.008 39.3713C105.564 40.1472 105.209 40.9948 104.67 41.699C103.234 43.5737 104.293 45.3184 104.841 47.0944C105.003 47.6102 105.469 47.655 105.945 47.6595C106.331 47.6595 106.861 47.5967 107.077 47.812C108.756 49.4715 111.122 49.31 113.11 50.1308C114.569 50.7317 115.678 50.0545 116.23 48.7C116.549 47.9286 116.828 47.4801 117.703 47.1482C118.677 46.785 119.494 45.6727 119.283 44.6411C119.104 43.78 117.919 44.3272 117.187 44.233C116.028 44.085 115.288 44.5739 114.893 45.7175C114.623 46.5024 114.228 47.4263 113.164 47.229C111.93 47.0002 110.547 46.9195 109.793 45.6413C109.519 45.1748 109.46 44.6456 109.882 44.242C110.722 43.4392 111.351 42.4031 112.491 41.9187C113.761 41.3761 114.825 40.5867 115.292 39.2008C115.4 38.8779 115.548 38.5191 115.966 38.6043C116.401 38.6985 116.41 39.1381 116.293 39.4251C115.553 41.2998 116.895 40.9231 117.815 40.7751C120.742 40.2907 123.634 39.8422 126.65 40.1651C129.434 40.4611 130.799 38.7703 130.395 35.9806C130.282 35.1913 130.08 34.4154 130.314 33.2313C131.45 35.1419 131.468 36.9494 131.836 38.6492C132.684 42.5377 135.046 44.39 138.996 44.2465C139.67 44.224 140.343 44.1926 141.012 44.2465C142.974 44.4079 144.877 45.5202 145.483 46.8119C145.183 47.0271 144.958 46.8208 144.738 46.6639C142.615 45.1748 140.321 44.695 137.73 45.1614C136.056 45.4664 134.552 44.7443 133.295 43.5827C132.276 42.6408 131.544 41.4658 130.722 40.1203V40.1427ZM42.8782 43.4885C43.4708 44.1343 43.7895 44.8205 44.0723 45.5426C44.418 46.4306 45.1094 46.4262 45.8726 46.1391C46.6717 45.8431 46.6852 45.3991 46.4787 44.5783C45.8726 42.2237 44.1711 43.6679 42.8782 43.484V43.4885ZM153.677 48.8839C153.865 49.5208 154.108 50.3685 154.363 51.2116C154.57 51.8934 155.041 51.6243 155.427 51.4538C155.782 51.3013 156.509 51.3193 156.204 50.6779C155.836 49.8975 155.899 49.0544 155.652 48.274C155.499 47.7896 155.077 47.3501 154.548 47.4442C153.973 47.5474 153.6 47.9914 153.677 48.8794V48.8839ZM112.98 43.6769C111.835 43.484 111.211 44.0087 111.198 45.1031C111.184 46.1795 112.06 46.2916 112.854 46.2961C114.152 46.3051 114.12 45.1569 114.251 44.3675C114.43 43.2911 113.47 43.7845 112.98 43.6769ZM3.27266 47.377C2.65761 47.6057 2.19969 48.0363 2.31193 48.6193C2.48252 49.5163 1.36017 50.3999 2.30744 51.243C2.47803 51.3955 2.88208 51.4538 3.10206 51.3641C4.17503 50.9201 3.86526 49.7675 4.24237 48.9557C4.51622 48.3726 4.20645 47.8793 3.69915 47.5339C3.57345 47.4487 3.40285 47.4218 3.27715 47.377H3.27266ZM153.416 46.3544C153.394 45.9014 151.674 44.3182 151.257 44.3541C150.678 44.4034 150.233 44.7936 150.44 45.3363C150.772 46.2064 151.266 47.1034 152.303 47.2693C152.895 47.3635 153.317 46.924 153.421 46.3544H153.416ZM7.66329 45.0493C7.67227 44.6142 7.26823 44.1837 6.86418 44.3541C5.97528 44.7219 4.98312 45.1255 4.66437 46.166C4.4848 46.7446 4.92476 47.1124 5.47246 47.211C6.14139 47.3321 7.59595 45.9328 7.66329 45.0493Z" fill="#FBC228"/>
<path d="M130.722 40.1429C131.544 41.4884 132.271 42.6635 133.295 43.6053C134.556 44.7669 136.06 45.489 137.73 45.184C140.325 44.7131 142.615 45.1975 144.738 46.6865C144.958 46.839 145.187 47.0453 145.483 46.83C144.877 45.5383 142.974 44.4305 141.012 44.2691C140.343 44.2153 139.665 44.2422 138.996 44.2691C135.046 44.4126 132.68 42.5603 131.836 38.6718C131.463 36.972 131.45 35.1646 130.314 33.254C130.08 34.438 130.278 35.2139 130.395 36.0033C130.799 38.7974 129.429 40.4882 126.65 40.1877C123.638 39.8648 120.747 40.3133 117.815 40.7977C116.895 40.9502 115.553 41.3224 116.293 39.4477C116.406 39.1607 116.401 38.7212 115.966 38.627C115.553 38.5373 115.404 38.9005 115.292 39.2235C114.825 40.6093 113.761 41.3987 112.491 41.9414C111.35 42.4302 110.722 43.4618 109.882 44.2646C109.46 44.6638 109.519 45.1975 109.793 45.6639C110.547 46.9421 111.93 47.0229 113.164 47.2516C114.228 47.4489 114.619 46.525 114.893 45.7402C115.288 44.601 116.028 44.1121 117.187 44.2556C117.918 44.3498 119.104 43.8026 119.283 44.6638C119.499 45.6953 118.677 46.8031 117.703 47.1709C116.828 47.4983 116.549 47.9468 116.23 48.7227C115.674 50.0771 114.569 50.7544 113.11 50.1534C111.122 49.3326 108.76 49.4986 107.077 47.8346C106.861 47.6194 106.331 47.6866 105.945 47.6822C105.469 47.6777 105.002 47.6328 104.841 47.117C104.293 45.341 103.234 43.5963 104.67 41.7216C105.209 41.0175 105.564 40.1698 106.008 39.3939C106.358 38.7839 106.87 38.6942 107.427 39.0486C107.983 39.4029 107.642 39.8334 107.418 40.2057C107.072 40.7798 106.713 41.3538 106.318 41.892C105.451 43.085 105.514 44.2422 106.583 45.8029C106.376 43.3183 107.678 41.8517 108.8 40.3088C109.519 39.3221 109.398 38.4834 108.329 37.9497C106.071 36.824 105.465 34.8013 105.231 32.5498C105.151 31.756 105.231 30.9218 104.482 29.9395C103.889 32.3031 104.244 34.2586 104.967 36.1961C105.734 38.2592 105.626 38.3399 103.386 38.1785C101.582 38.0484 100.136 37.1604 98.7487 36.0929C98.3267 36.8464 98.7442 37.2635 99.0764 37.5685C100.491 38.8467 101.128 40.6228 102.138 42.1611C102.524 42.7487 103.023 43.5156 101.68 43.6905C101.137 43.7623 101.29 44.2646 101.263 44.6413C101.115 46.8614 100.289 47.4265 98.2414 46.5654C96.6118 45.8792 94.9821 45.3724 93.1953 45.6684C92.3378 45.8119 91.6285 45.48 91.0718 44.897C90.3401 44.13 89.8193 44.3274 89.1324 45.0001C87.7901 46.3142 86.3669 47.5611 83.7406 47.3144C86.1066 45.5338 86.9955 43.2689 88.3647 40.8784C87.2065 41.1341 86.9551 41.8786 86.5196 42.363C86.0751 42.8608 85.7205 43.4438 85.3523 44.0045C84.661 45.0629 83.7227 45.6819 82.4252 45.6594C82.1694 45.6594 81.8012 45.7177 81.7698 45.341C81.7563 45.1706 81.9269 44.9239 82.084 44.8162C85.698 42.2867 86.9595 38.3758 87.6195 34.4111C88.9214 26.6027 93.0831 20.9965 99.7454 16.9869C101.222 16.0944 102.56 14.9507 103.894 13.8429C106.632 11.5601 109.483 11.6587 111.93 14.3677C112.818 15.3499 113.757 15.8746 115.036 16.1123C117.321 16.5339 119.458 17.3995 121.155 19.0545C121.721 19.6061 122.385 19.8932 123.09 19.9694C125.07 20.1847 126.704 21.1131 128.235 22.2837C129.236 23.0506 130.341 23.5798 131.575 23.7772C134.637 24.2616 137.313 25.5891 139.809 27.3741C140.9 28.1545 142.071 28.8273 143.243 29.4776C144.348 30.092 145.564 30.3028 146.821 30.1683C149.169 29.9126 150.399 27.8181 149.47 25.6564C148.882 24.2885 147.854 23.2524 146.812 22.2299C146.094 21.5257 145.358 20.8261 144.734 20.0457C143.117 18.014 143.414 16.3456 145.649 15.0718C146.565 14.5516 147.566 14.1075 148.581 13.8474C149.721 13.5559 150.839 13.2733 151.795 12.4885C152.702 15.8612 151.364 17.9198 148.056 18.4221C147.526 18.5028 146.826 18.3234 146.673 19.059C146.538 19.7093 147.131 20.0367 147.557 20.3731C148.94 21.454 150.134 22.7097 150.983 24.2526C152.024 26.1497 152.622 28.0424 151.162 30.0651C149.627 32.1955 147.531 32.9893 145.025 32.7561C142.906 32.5588 142.924 32.4825 143.221 34.6219C143.382 35.8014 143.261 36.9541 142.875 38.0977C142.264 39.9097 142.839 40.9233 144.671 40.8829C146.229 40.847 146.915 41.4391 147.18 42.8967C147.647 45.4711 149.694 46.9242 151.553 48.3594C152.433 49.0366 152.716 49.7632 152.972 50.6512C153.147 51.2612 152.918 51.5931 152.235 51.6334C151.014 51.7097 149.838 51.6065 149.052 50.5481C148.307 49.5479 147.566 48.9828 146.229 49.6017C145.43 49.974 144.603 49.6017 143.899 49.0321C141.667 47.2202 139.225 46.4129 136.253 46.9018C133.021 47.4355 130.116 43.9148 130.722 40.1653V40.1429ZM96.0685 34.7161C96.4546 33.3885 95.5208 32.6395 94.8519 31.8098C94.5691 31.46 94.2638 31.6708 94.0214 31.9533C93.1863 32.9176 92.2615 33.8235 91.5387 34.8685C91.0404 35.5906 90.56 36.4876 91.2245 37.4967C92.8811 34.4156 93.981 33.0611 96.0685 34.7161ZM102.686 24.4006C104.06 22.4182 105.389 21.0368 106.771 19.7048C107.045 19.4447 107.359 19.1307 106.964 18.7136C106.686 18.4221 106.349 18.4176 106.066 18.6463C104.378 20.0232 102.91 21.5392 102.686 24.3961V24.4006ZM95.7408 42.9998C95.5388 42.3944 95.1437 41.9773 94.4524 41.9234C94.0618 41.892 93.7924 42.067 93.8687 42.4975C93.9899 43.1568 94.3177 43.6232 95.0809 43.5874C95.4445 43.5694 95.7363 43.4708 95.7363 42.9953L95.7408 42.9998Z" fill="#D90A48"/>
<path d="M70.1963 40.2997C71.5656 42.7395 72.221 45.722 75.3636 46.9061C73.4915 47.4129 71.8709 46.9599 70.6453 45.731C69.4915 44.5783 68.5487 44.1971 67.2692 45.417C66.8697 45.7983 66.2995 46.0763 65.7294 46.0046C63.5385 45.7175 61.5228 46.323 59.5115 47.0675C58.7169 47.359 57.7607 47.5653 57.204 46.7267C56.6742 45.9283 56.4947 44.973 57.0558 44.0267C57.2938 43.623 57.8729 43.2418 56.8269 42.8337C55.9739 42.5018 56.7147 41.7214 57.1007 41.4164C58.4116 40.3804 58.699 38.8017 59.6821 37.2723C58.0525 37.5773 56.6653 37.4517 55.3633 38.0527C54.8067 38.3128 54.0659 38.4563 53.6035 38.0123C53.0827 37.51 53.7202 36.9897 53.9402 36.5233C54.5597 35.2182 54.6091 33.8772 54.3308 32.0652C53.828 33.4735 53.4778 34.5051 53.0962 35.5232C52.6517 36.6937 51.9334 37.5279 50.5776 37.6849C49.2667 37.8329 48.746 38.4339 49.6259 39.6807C49.8504 39.9992 49.985 40.3759 50.1871 40.7123C51.2376 42.4839 52.6203 44.1747 51.2915 46.5069C53.1546 45.269 53.4509 44.3317 52.6922 42.6319C52.2836 41.7124 51.8032 40.8244 51.3902 39.905C51.2241 39.5372 50.7572 39.1111 51.2915 38.7254C51.7224 38.416 52.1444 38.7703 52.544 38.9362C52.9525 39.1067 53.0378 39.5148 53.2129 39.8646C53.4868 40.4163 53.7427 40.9769 54.0524 41.5106C55.2332 43.5378 54.9054 45.7444 53.1366 47.3456C52.9391 47.525 52.6652 47.7223 52.4138 47.7358C49.7157 47.8928 47.4575 49.4087 44.9345 50.1039C43.3048 50.5523 42.169 50.0814 41.3923 48.7001C40.9254 47.8658 40.481 47.22 39.3676 47.2783C38.8019 47.3097 37.2576 45.0179 37.3204 44.4528C37.3698 44.0177 37.7065 43.9863 38.0298 43.8832C40.2026 43.1745 41.1095 43.5154 42.5057 45.5964C43.9288 47.7268 44.8761 48.0138 46.9637 46.9509C48.4452 46.1974 48.7953 45.0044 47.8571 43.6365C47.4844 43.0938 47.0175 42.5242 46.4564 42.2103C44.499 41.1204 42.8514 39.7794 42.1825 37.5907C41.545 37.649 41.545 38.0796 41.6348 38.3487C42.2767 40.3086 41.0646 40.4342 39.7133 40.2279C36.7727 39.7839 33.8546 39.4879 30.8781 39.9588C29.4236 40.1875 28.7187 39.2278 28.5751 37.8867C28.4628 36.8328 28.4404 35.7653 28.7232 34.7159C28.804 34.4243 28.9522 33.9848 28.4539 33.9175C28.0229 33.8637 27.9421 34.2808 27.8837 34.5993C27.7311 35.4245 27.6009 36.2497 27.4797 37.0794C26.8736 41.2325 24.4942 43.4212 20.2966 43.6679C18.7882 43.7576 17.2618 43.8069 15.8252 44.3003C14.1776 44.8654 12.6422 45.6233 11.9508 47.4263C12.1214 47.4891 12.2741 47.5833 12.301 47.5519C14.7567 45.1031 17.8409 44.6367 21.1227 44.6546C23.8208 44.668 26.0161 43.6096 27.4976 41.2684C27.749 40.8693 27.978 40.2145 28.611 40.6495C29.0959 40.9814 28.7187 41.4523 28.5437 41.8515C26.8871 45.5516 23.8343 47.1662 19.915 46.4306C18.2944 46.1257 16.8667 46.323 15.5872 47.5833C14.5098 48.6417 13.2168 49.458 11.5109 48.9781C10.5187 48.7 9.97549 49.319 9.53104 50.1308C8.96089 51.1758 8.13484 51.9203 6.83291 51.7274C6.16399 51.6287 5.14939 51.9158 4.99226 50.9829C4.82615 49.9962 5.16734 49.0633 6.06073 48.3368C8.19769 46.5966 10.9856 45.4574 11.7129 42.3583C11.897 41.5824 12.5075 41.1653 13.365 41.237C13.6433 41.2595 13.9262 41.246 14.2045 41.2146C16.6423 40.9321 17.5132 39.5955 16.759 37.3037C16.3908 36.178 16.1035 35.0253 16.1664 33.8458C16.2382 32.5406 15.7085 32.3209 14.5637 32.6079C12.53 33.1147 10.5591 32.9577 8.74989 31.7782C5.97544 29.9707 5.33345 26.163 7.33573 23.5124C8.29197 22.2431 9.55349 21.3058 10.7252 20.2652C11.2415 19.8078 12.1843 19.5342 11.9014 18.6282C11.6141 17.7088 10.6848 18.0227 10.0024 17.9958C7.76671 17.8972 6.07869 16.5292 5.54445 14.3809C5.36937 13.6858 5.32447 12.9368 5.80035 12.4793C6.41091 11.8918 6.9227 12.6587 7.36715 12.9726C8.6601 13.8921 10.2045 13.9638 11.65 14.363C15.2236 15.3452 15.9599 17.9958 13.3291 20.5837C12.1708 21.7229 10.8824 22.723 9.74204 23.8756C8.25156 25.3781 8.00016 27.1811 8.92048 28.7733C9.8049 30.2981 11.4031 30.944 13.4144 30.5089C15.4795 30.0604 17.3246 29.0782 18.9049 27.7148C21.0598 25.849 23.4841 24.7054 26.3214 24.5125C28.0408 24.3959 29.437 23.7052 30.6402 22.5257C32.2564 20.947 34.0746 19.8571 36.463 20.0096C37.4237 20.0724 38.1285 19.4355 38.766 18.7807C39.6325 17.8882 40.5663 17.0764 41.7605 16.6638C44.5663 15.695 47.3004 14.6366 49.8593 13.0489C51.7763 11.8604 53.9537 12.3761 55.736 13.6095C60.7372 17.0809 65.2131 21.1084 68.4814 26.3289C69.478 27.9211 69.5678 29.733 69.8057 31.4822C70.3984 35.8909 72.45 39.591 75.0494 43.0804C75.6285 43.8608 76.5803 44.1254 77.2851 44.8161C75.5701 45.3363 74.0617 44.5873 72.8092 42.7171C72.1402 41.7169 71.7272 40.4656 70.3759 40.0889C70.2547 39.9723 70.1245 39.8646 69.9988 40.062C69.9808 40.0889 70.111 40.21 70.1739 40.2862L70.1963 40.2997ZM67.7406 36.7386C68.5846 35.2585 67.1705 31.5943 65.6037 31.1907C65.3119 31.1144 64.9931 31.1413 64.8674 31.4149C64.4499 32.3119 63.6598 33.1102 63.9516 34.3077C65.7069 32.8277 65.8641 32.9308 67.7406 36.7386ZM54.7618 26.0733C55.3005 23.9698 55.0805 22.5122 54.0973 21.1757C53.8414 20.8303 53.5047 20.6106 53.1052 20.8976C52.7685 21.1398 52.8672 21.5165 53.0872 21.7856C53.9941 22.9069 54.0973 24.3466 54.7618 26.0733ZM65.4106 42.3852C65.3298 41.9771 65.2041 41.5106 64.7103 41.6541C64.0054 41.856 63.3635 42.2955 63.2422 43.0669C63.148 43.641 63.7181 43.5603 64.0773 43.5468C64.8135 43.5154 65.3478 43.2059 65.4061 42.3897L65.4106 42.3852Z" fill="#D90A48"/>
<path d="M42.8784 43.4886C44.1669 43.6725 45.8728 42.2283 46.4789 44.583C46.6899 45.3992 46.672 45.8477 45.8728 46.1437C45.1096 46.4263 44.4228 46.4353 44.0726 45.5472C43.7898 44.8252 43.471 44.1345 42.8784 43.4931V43.4886Z" fill="#D90A48"/>
<path d="M153.677 48.8841C153.601 47.996 153.973 47.5475 154.548 47.4489C155.082 47.3547 155.504 47.7942 155.652 48.2786C155.895 49.059 155.836 49.8977 156.204 50.6825C156.51 51.3284 155.778 51.3059 155.428 51.4584C155.042 51.6244 154.57 51.898 154.364 51.2162C154.108 50.3731 153.865 49.5254 153.677 48.8885V48.8841Z" fill="#D90A48"/>
<path d="M112.98 43.6769C113.47 43.7846 114.43 43.2912 114.251 44.3676C114.121 45.1525 114.152 46.3051 112.855 46.2962C112.06 46.2917 111.18 46.1796 111.198 45.1032C111.211 44.0088 111.84 43.4841 112.98 43.6769Z" fill="#D90A48"/>
<path d="M3.27283 47.3772C3.39853 47.422 3.56913 47.449 3.69483 47.5342C4.20213 47.8795 4.5119 48.3729 4.23805 48.9559C3.86094 49.7632 4.17071 50.9159 3.09774 51.3644C2.88225 51.4541 2.47371 51.3957 2.30312 51.2433C1.36034 50.4046 2.48269 49.521 2.30761 48.6195C2.19537 48.0365 2.65329 47.6059 3.26834 47.3772H3.27283Z" fill="#D90A48"/>
<path d="M153.416 46.3544C153.313 46.924 152.891 47.3635 152.298 47.2694C151.261 47.1034 150.767 46.2064 150.435 45.3363C150.229 44.7936 150.673 44.4035 151.252 44.3541C151.67 44.3182 153.389 45.9014 153.412 46.3544H153.416Z" fill="#D90A48"/>
<path d="M7.66319 45.0493C7.59585 45.9328 6.1368 47.3321 5.47236 47.211C4.92466 47.1123 4.48919 46.7401 4.66427 46.166C4.98751 45.1255 5.97967 44.7263 6.86408 44.3541C7.26812 44.1836 7.66768 44.6142 7.66319 45.0493Z" fill="#D90A48"/>
<path d="M96.0687 34.7161C93.9812 33.0611 92.8768 34.4156 91.2247 37.4967C90.5602 36.4831 91.0406 35.5906 91.5389 34.8685C92.2572 33.8235 93.1865 32.9176 94.0216 31.9533C94.264 31.6708 94.5693 31.46 94.8521 31.8098C95.521 32.6395 96.4548 33.3885 96.0687 34.7161Z" fill="#FBC228"/>
<path d="M102.686 24.4005C102.911 21.5436 104.379 20.0232 106.067 18.6508C106.349 18.4175 106.691 18.4265 106.964 18.718C107.36 19.1351 107.045 19.4446 106.771 19.7092C105.389 21.0413 104.06 22.4226 102.686 24.405V24.4005Z" fill="#FBC228"/>
<path d="M95.7408 42.9998C95.7408 43.4707 95.449 43.5739 95.0854 43.5918C94.3222 43.6277 93.9945 43.1612 93.8732 42.502C93.7924 42.0714 94.0618 41.8965 94.4569 41.9279C95.1482 41.9817 95.5433 42.3988 95.7453 43.0043L95.7408 42.9998Z" fill="#FBC228"/>
<path d="M67.7404 36.7386C65.8639 32.9309 65.7067 32.8277 63.9514 34.3078C63.6596 33.1103 64.4497 32.312 64.8672 31.415C64.9929 31.1414 65.3117 31.1145 65.6035 31.1907C67.1703 31.5988 68.5844 35.2586 67.7404 36.7386Z" fill="#FBC228"/>
<path d="M54.7616 26.0734C54.0972 24.3467 53.994 22.907 53.0871 21.7858C52.8671 21.5167 52.7683 21.1399 53.1051 20.8977C53.5001 20.6107 53.8413 20.8305 54.0972 21.1758C55.0804 22.5123 55.3004 23.97 54.7616 26.0734Z" fill="#FBC228"/>
<path d="M65.4106 42.3854C65.3522 43.2016 64.818 43.5111 64.0817 43.5425C63.7226 43.5559 63.1524 43.6367 63.2467 43.0626C63.3724 42.2912 64.0144 41.8516 64.7147 41.6498C65.2086 41.5108 65.3343 41.9772 65.4151 42.3809L65.4106 42.3854Z" fill="#FBC228"/>
<path d="M70.1963 40.2998C70.1334 40.2235 70.0033 40.1024 70.0212 40.0755C70.1469 39.8782 70.2771 39.9813 70.3983 40.1024C70.3355 40.1697 70.2681 40.237 70.2008 40.3043L70.1963 40.2998Z" fill="#FBC228"/>
</g>
<defs>
<clipPath id="clip0_369_16">
<rect width="158" height="59" fill="white" transform="translate(0 0.5)"/>
</clipPath>
</defs>
</svg>
