<svg width="154" height="18" viewBox="0 0 154 18" fill="none" xmlns="http://www.w3.org/2000/svg">
<g clip-path="url(#clip0_353_117)">
<path d="M0 14.8271C0.0513786 14.6746 0.124777 14.5295 0.157806 14.3733C0.322951 13.5772 0.473417 12.7812 0.631223 11.9889C0.642232 11.9368 0.660582 11.8885 0.678931 11.8178H5.83514C5.72504 12.3869 5.62229 12.9263 5.5232 13.4694C5.40943 14.098 5.59293 14.3956 6.21314 14.496C6.68656 14.5741 7.17098 14.6262 7.64807 14.6262C8.99859 14.6262 10.3454 14.6002 11.696 14.5704C11.9198 14.5667 12.1474 14.5109 12.3676 14.4737C12.9841 14.3696 13.1566 13.3429 12.7235 13.0379C12.4923 12.8779 12.2758 12.6919 12.0263 12.5617C10.7748 11.9182 9.51972 11.2896 8.26461 10.6609C7.03153 10.0435 5.7911 9.44457 4.56903 8.80477C4.06258 8.54067 3.57815 8.21704 3.11941 7.87111C2.3047 7.25362 2.01111 6.39435 2.18726 5.39373C2.34507 4.48983 2.52856 3.58592 2.74142 2.69318C2.83316 2.3026 2.99831 1.92318 3.17813 1.56608C3.48273 0.959761 3.98918 0.572905 4.6204 0.349718C5.4131 0.0744545 6.23883 0.0149381 7.06823 0.0149381C10.5693 0.00749856 14.0704 5.90058e-05 17.5715 0.0149381C18.0999 0.0149381 18.6394 0.0856139 19.1569 0.208366C20.2689 0.47619 20.7826 1.18295 20.7973 2.34352C20.8047 3.00192 20.6469 3.63056 20.5257 4.26664C20.4046 4.90272 20.2725 5.53881 20.1441 6.19349H14.7457C14.8447 5.68388 14.9402 5.19659 15.0282 4.70558C15.0576 4.53447 15.0833 4.35592 15.087 4.18481C15.0906 3.81283 14.9695 3.63056 14.6135 3.53385C14.3053 3.45201 13.986 3.39993 13.6667 3.37762C12.1584 3.27718 10.65 3.29206 9.14172 3.37762C8.8518 3.3925 8.55454 3.44085 8.27562 3.52641C7.65541 3.7124 7.46825 4.50471 7.94533 4.95108C8.18755 5.17427 8.48481 5.3491 8.7784 5.50533C9.6078 5.94054 10.4482 6.35344 11.2849 6.77377C13.3805 7.82275 15.476 8.86057 17.5678 9.91698C17.9348 10.103 18.2908 10.3262 18.6247 10.5717C19.1202 10.9399 19.3294 11.4644 19.2156 12.0707C19.0211 13.1197 18.7936 14.165 18.577 15.2102C18.5513 15.3404 18.4963 15.4669 18.4559 15.5971C18.0449 16.9064 17.1458 17.6392 15.8246 17.8364C15.2594 17.9219 14.6833 17.9852 14.1108 17.9852C10.7712 18.0001 7.42788 17.9926 4.08827 17.9926C3.39099 17.9926 2.69371 17.948 2.02578 17.7434C1.67347 17.6355 1.3285 17.4718 1.00922 17.2859C0.590854 17.0404 0.337631 16.6386 0.183495 16.1736C0.124777 16.0174 0.0587184 15.8686 0 15.7198C0 15.4223 0 15.1247 0 14.8271Z" fill="white"/>
<path d="M107.763 17.8177H101.964C101.675 13.6999 101.388 9.60439 101.102 5.51264C101.058 5.50892 101.043 5.5052 101.032 5.5052C101.021 5.5052 101.003 5.51264 100.999 5.5238C99.2744 9.61555 97.5532 13.711 95.8247 17.8214H88.9436C88.4996 13.6069 88.0555 9.39981 87.6115 5.19646C87.5821 5.19646 87.5491 5.18902 87.5197 5.1853C86.1215 9.39609 84.7233 13.6069 83.325 17.8214H77.6514C79.7983 11.9293 81.9378 6.07061 84.0774 0.193359H91.4869C91.997 4.5827 92.5071 8.95715 93.0172 13.3353C93.0466 13.3428 93.076 13.3502 93.1053 13.3539C94.9586 8.97947 96.7862 4.59386 98.6432 0.197079H106.251C106.754 6.06689 107.256 11.9293 107.763 17.8139V17.8177Z" fill="white"/>
<path d="M138.018 5.25608C137.46 9.43711 136.902 13.6181 136.341 17.8178H130.817C131.687 11.9368 132.553 6.08187 133.427 0.167427C136.047 0.167427 138.645 0.167427 141.273 0.167427C143.112 4.47121 144.939 8.76011 146.77 13.0527C146.8 13.0527 146.829 13.049 146.859 13.0453C147.508 8.77871 148.154 4.51213 148.804 0.252982C149.086 0.148828 153.409 0.11907 154.004 0.219504C153.967 0.546844 153.941 0.877904 153.894 1.20524C153.453 4.18851 153.006 7.17177 152.562 10.155C152.202 12.5915 151.846 15.0242 151.486 17.4607C151.468 17.5797 151.439 17.695 151.413 17.8215H143.306C142.44 15.7235 141.567 13.6181 140.697 11.5127C139.834 9.41851 138.972 7.328 138.109 5.23376C138.08 5.2412 138.047 5.24864 138.018 5.25608Z" fill="white"/>
<path d="M66.682 17.9888C65.2764 18.0037 63.8745 17.9665 62.4837 17.7507C61.702 17.6317 60.9386 17.442 60.2193 17.1035C58.5972 16.3484 57.7678 15.0539 57.7642 13.2535C57.7642 12.5542 57.8669 11.8511 57.9844 11.1593C58.2779 9.44073 58.5715 7.71847 58.9275 6.0111C59.5441 3.06875 61.3643 1.28326 64.2048 0.520706C65.3462 0.215685 66.5169 0.0817727 67.6912 0.044575C69.5335 -0.0186612 71.3795 -0.0446997 73.2218 0.115251C74.3044 0.211965 75.3723 0.383075 76.3706 0.840607C77.9633 1.5734 78.778 2.83441 78.8441 4.6013C78.8734 5.40477 78.7486 6.19337 78.6019 6.97824C78.3009 8.61494 78.0257 10.2554 77.7027 11.8846C77.4128 13.3502 76.8036 14.6596 75.7063 15.6974C74.7228 16.6273 73.5447 17.1741 72.2529 17.494C70.8437 17.8437 69.4051 17.9367 67.9591 17.9776C67.5334 17.9888 67.1041 17.9776 66.6747 17.9776L66.682 17.9888ZM69.2363 3.82387C68.4729 3.89082 67.7096 3.92058 66.9609 4.02846C65.9591 4.17353 65.2397 4.73149 64.8728 5.70608C64.748 6.03342 64.6342 6.3682 64.5645 6.71042C64.2599 8.19461 63.97 9.6788 63.6874 11.1667C63.581 11.7247 63.4892 12.2864 63.5846 12.8592C63.6727 13.4023 63.9553 13.7854 64.4581 13.9751C64.7186 14.0756 64.9975 14.1462 65.2728 14.176C66.6306 14.3211 67.9958 14.3211 69.3537 14.1648C70.5244 14.0272 71.3318 13.406 71.6988 12.2492C71.7868 11.9665 71.8749 11.68 71.9336 11.3899C72.2309 9.89082 72.5355 8.39547 72.8034 6.88896C72.8915 6.40167 72.9135 5.89206 72.9025 5.39733C72.8878 4.80217 72.5759 4.37811 72.0144 4.16981C71.8382 4.10657 71.6584 4.0359 71.4786 4.0173C70.7336 3.9429 69.9886 3.8871 69.2436 3.82387H69.2363Z" fill="white"/>
<path d="M118.171 17.9963C116.908 18.0038 115.492 17.9666 114.086 17.7508C113.198 17.6132 112.336 17.39 111.536 16.9585C110.185 16.2257 109.473 15.0837 109.381 13.5363C109.33 12.651 109.47 11.7843 109.631 10.9176C109.932 9.31064 110.2 7.69625 110.515 6.09303C110.791 4.68323 111.385 3.42223 112.409 2.40301C113.378 1.43959 114.56 0.863023 115.862 0.524524C117.099 0.200903 118.362 0.0744307 119.631 0.0483923C120.927 0.018634 122.222 0.0149143 123.518 0.0483923C124.799 0.0818703 126.079 0.197183 127.313 0.598919C127.375 0.621238 127.441 0.639837 127.503 0.662155C129.621 1.40611 130.619 3.02049 130.439 5.30816C130.366 6.26414 130.164 7.20896 130.003 8.15379C129.779 9.44455 129.562 10.7428 129.287 12.0224C128.883 13.912 127.951 15.4594 126.296 16.501C125.305 17.1259 124.215 17.4718 123.078 17.6727C121.507 17.9517 119.918 18 118.175 17.9963H118.171ZM118.681 14.3175C119.532 14.2654 120.211 14.2393 120.887 14.1761C122.145 14.0534 122.989 13.395 123.353 12.1451C123.433 11.8736 123.518 11.602 123.573 11.323C123.845 9.93184 124.12 8.54064 124.366 7.14201C124.457 6.62496 124.527 6.09675 124.527 5.57226C124.527 4.77251 124.16 4.32614 123.408 4.09179C123.294 4.05459 123.177 4.02483 123.059 4.00624C121.947 3.82769 120.824 3.83141 119.705 3.89836C119.213 3.92812 118.721 3.99136 118.241 4.09923C117.433 4.2815 116.861 4.78367 116.53 5.55366C116.398 5.8624 116.277 6.1823 116.211 6.51336C115.929 7.90456 115.657 9.29576 115.404 10.6907C115.301 11.2598 115.198 11.8364 115.18 12.4166C115.151 13.3987 115.551 13.9269 116.501 14.0943C117.272 14.2319 118.064 14.2542 118.681 14.3137V14.3175Z" fill="white"/>
<path d="M36.3467 0.171113C37.51 6.07068 38.6624 11.9293 39.8221 17.8177H33.8034C33.6126 16.7576 33.4217 15.6975 33.2272 14.6299C33.0731 14.6224 32.9557 14.6076 32.8382 14.6076C30.8602 14.6076 28.8821 14.6113 26.904 14.6001C26.6178 14.6001 26.482 14.6931 26.3719 14.9572C25.9645 15.9132 25.5315 16.858 25.1021 17.8215H19.1055C19.1568 17.7024 19.1899 17.6057 19.2376 17.5127C22.1185 11.8624 24.9993 6.21203 27.8692 0.55797C28.0197 0.260388 28.1885 0.159954 28.5151 0.163673C30.9739 0.178552 33.4328 0.171113 35.8916 0.171113C36.0237 0.171113 36.1558 0.171113 36.3467 0.171113ZM32.908 11.2189C32.5336 8.74148 32.1703 6.3199 31.7997 3.87973C31.7299 3.91321 31.6969 3.91693 31.6859 3.93553C30.5592 6.17855 29.4326 8.42158 28.3096 10.6646C28.2325 10.8208 28.1628 10.9808 28.0931 11.1407C28.0894 11.1519 28.0931 11.1668 28.1004 11.1779C28.1041 11.1891 28.1114 11.204 28.1187 11.2189H32.908Z" fill="white"/>
<path d="M55.7713 17.8214H41.3779C42.2477 11.9442 43.1138 6.08923 43.9762 0.245461C44.2772 0.148747 49.2499 0.126429 49.782 0.219423C49.1141 4.66456 48.4498 9.10969 47.7746 13.6069H56.3621C56.1603 15.0316 55.9694 16.4079 55.7713 17.8214Z" fill="white"/>
</g>
<defs>
<clipPath id="clip0_353_117">
<rect width="154" height="18" fill="white"/>
</clipPath>
</defs>
</svg>
