<svg width="12" height="16" viewBox="0 0 12 16" fill="none" xmlns="http://www.w3.org/2000/svg">
<path d="M0 1.50015C0 0.67194 0.671875 0 1.5 0V1.50015V13.7951L5.56563 10.8917C5.825 10.7042 6.17812 10.7042 6.4375 10.8917L10.5 13.7951V1.50015H1.5V0H10.5C11.3281 0 12 0.67194 12 1.50015V15.2515C12 15.5328 11.8438 15.789 11.5938 15.9172C11.3438 16.0453 11.0437 16.0234 10.8156 15.8609L6 12.4231L1.18438 15.8609C0.95625 16.0234 0.65625 16.0453 0.40625 15.9172C0.15625 15.789 0 15.5328 0 15.2515V1.50015Z" fill="white"/>
</svg>
