<svg width="16" height="19" viewBox="0 0 16 19" fill="none" xmlns="http://www.w3.org/2000/svg">
<g clip-path="url(#clip0_338_574)">
<path d="M10.8571 4.75C10.8571 3.96264 10.5561 3.20753 10.0203 2.65078C9.48449 2.09403 8.75776 1.78125 8 1.78125C7.24224 1.78125 6.51551 2.09403 5.9797 2.65078C5.44388 3.20753 5.14286 3.96264 5.14286 4.75C5.14286 5.53736 5.44388 6.29247 5.9797 6.84922C6.51551 7.40597 7.24224 7.71875 8 7.71875C8.75776 7.71875 9.48449 7.40597 10.0203 6.84922C10.5561 6.29247 10.8571 5.53736 10.8571 4.75ZM3.42857 4.75C3.42857 3.49022 3.9102 2.28204 4.76751 1.39124C5.62482 0.500445 6.78758 0 8 0C9.21242 0 10.3752 0.500445 11.2325 1.39124C12.0898 2.28204 12.5714 3.49022 12.5714 4.75C12.5714 6.00978 12.0898 7.21796 11.2325 8.10876C10.3752 8.99956 9.21242 9.5 8 9.5C6.78758 9.5 5.62482 8.99956 4.76751 8.10876C3.9102 7.21796 3.42857 6.00978 3.42857 4.75ZM1.76071 17.2188H14.2393C13.9214 14.8697 11.9786 13.0625 9.63214 13.0625H6.36786C4.02143 13.0625 2.07857 14.8697 1.76071 17.2188ZM0 17.8979C0 14.2426 2.85 11.2812 6.36786 11.2812H9.63214C13.15 11.2812 16 14.2426 16 17.8979C16 18.5064 15.525 19 14.9393 19H1.06071C0.475 19 0 18.5064 0 17.8979Z" fill="#EEEEEE"/>
</g>
<defs>
<clipPath id="clip0_338_574">
<rect width="16" height="19" fill="white"/>
</clipPath>
</defs>
</svg>
