<?xml version="1.0" encoding="UTF-8"?>
<svg id="Calque_1" xmlns="http://www.w3.org/2000/svg" version="1.1" viewBox="0 0 500 500">
  <!-- Generator: Adobe Illustrator 29.5.1, SVG Export Plug-In . SVG Version: 2.1.0 Build 141)  -->
  <defs>
    <style>
      .st0 {
        fill: #2b4afb;
        stroke: #2b4afb;
        stroke-width: 0px;
      }
    </style>
  </defs>
  <path class="st0" d="M324.73,211.1l72.99-85.5c.66-.77,1.61-1.22,2.6-1.22h20.81c3.03,0,4.62,3.78,2.56,6.11l-71.23,80.71c-3.6,4.08-4.67,9.95-2.75,15.14l53.43,144.31c.88,2.39-.8,4.96-3.25,4.96h-66.94c-1.52,0-2.86-1.03-3.32-2.54l-22.84-75.64c-4.31-14.28-23.94-13.28-26.91,1.37l-14.97,73.93c-.34,1.68-1.76,2.89-3.41,2.89h-67.42c-2.21,0-3.87-2.13-3.41-4.4l49.57-243.53c.34-1.68,1.76-2.88,3.41-2.88h67.81c2.22,0,3.87,2.14,3.41,4.4l-14.15,69.15c-2.99,14.61,14.49,23.89,24.01,12.75Z"/>
  <path class="st0" d="M94.26,301.88l10.45-46.42c-4.87,37.14,12.48,70.69,21.76,82.83l9.58-47.33c-2.09,28.4,13.64,59.77,21.76,71.91l47.01-231.2c-26.46,14.56-42.36,43.08-47.01,55.52l9.58-50.06c-31.34,15.29-48.46,51.88-53.1,68.27l9.58-44.6c-9.87,1.21-32.56,14.93-44.4,60.07-11.84,45.15,4.93,72.82,14.8,81.01Z"/>
</svg>