<svg width="500" height="500" viewBox="0 0 500 500" fill="none" xmlns="http://www.w3.org/2000/svg">
<rect width="500" height="500" rx="32" fill="url(#paint0_linear_33_450)"/>
<g filter="url(#filter0_d_33_450)">
<path d="M269.357 220.26C268.283 225.277 274.56 228.463 277.976 224.636L319.898 177.67C320.847 176.608 322.204 176 323.628 176H335.583C339.941 176 342.213 181.188 339.257 184.391L298.344 228.729C297.051 230.131 296.668 232.146 297.356 233.925L328.047 313.195C329.315 316.471 326.898 320 323.384 320H284.937C282.756 320 280.826 318.586 280.169 316.505L267.051 274.957C265.503 270.055 258.456 270.398 257.391 275.426L248.795 316.035C248.306 318.347 246.266 320 243.903 320H205.176C201.996 320 199.624 317.07 200.286 313.959L228.755 180.186C229.246 177.877 231.285 176.226 233.645 176.226H272.596C275.779 176.226 278.152 179.16 277.486 182.273L269.357 220.26Z" fill="#EEEEEE"/>
</g>
<g filter="url(#filter1_d_33_450)">
<mask id="mask0_33_450" style="mask-type:alpha" maskUnits="userSpaceOnUse" x="121" y="100" width="110" height="295">
<rect x="181.78" y="101.118" width="48.8298" height="288.704" transform="rotate(11.8515 181.78 101.118)" fill="#D9D9D9" stroke="url(#paint1_linear_33_450)"/>
</mask>
<g mask="url(#mask0_33_450)">
<path d="M329.084 247.22L294.377 239.936C294.685 235.313 294.228 231.053 293.005 227.156C291.793 223.207 289.916 219.669 287.373 216.543C284.83 213.418 281.69 210.773 277.952 208.61C274.267 206.458 270.1 204.894 265.452 203.918C257.052 202.156 249.298 202.707 242.189 205.572C235.09 208.385 228.993 213.393 223.896 220.596C218.811 227.747 215.088 236.948 212.726 248.2C210.299 259.769 209.976 269.85 211.758 278.441C213.592 287.044 217.205 294.007 222.596 299.33C227.987 304.653 234.777 308.173 242.965 309.892C247.561 310.856 251.941 311.141 256.105 310.746C260.322 310.363 264.207 309.33 267.758 307.649C271.321 305.915 274.461 303.568 277.178 300.608C279.948 297.659 282.183 294.102 283.885 289.937L318.558 297.379C316.097 304.639 312.345 311.352 307.3 317.518C302.32 323.643 296.247 328.794 289.083 332.972C281.983 337.107 273.954 339.89 264.995 341.319C256.1 342.706 246.449 342.308 236.042 340.124C221.567 337.087 209.312 331.096 199.276 322.151C189.293 313.217 182.302 301.85 178.304 288.05C174.359 274.261 174.237 258.544 177.94 240.9C181.654 223.203 188.141 208.846 197.402 197.829C206.664 186.811 217.681 179.251 230.455 175.148C243.241 170.992 256.765 170.41 271.028 173.403C280.431 175.376 288.87 178.526 296.346 182.853C303.874 187.19 310.223 192.548 315.392 198.928C320.572 205.255 324.352 212.473 326.732 220.584C329.164 228.705 329.948 237.584 329.084 247.22Z" fill="#EEEEEE"/>
</g>
<mask id="mask1_33_450" style="mask-type:alpha" maskUnits="userSpaceOnUse" x="101" y="120" width="104" height="294">
<rect x="161.326" y="120.946" width="43.8468" height="288.704" transform="rotate(11.8515 161.326 120.946)" fill="#D9D9D9" stroke="url(#paint2_linear_33_450)"/>
</mask>
<g mask="url(#mask1_33_450)">
<path d="M283.796 241.304L255.178 235.299C255.433 231.487 255.055 227.974 254.047 224.761C253.048 221.504 251.5 218.587 249.403 216.01C247.306 213.432 244.717 211.252 241.635 209.468C238.596 207.694 235.161 206.404 231.328 205.6C224.402 204.147 218.008 204.601 212.146 206.964C206.293 209.283 201.265 213.412 197.063 219.352C192.869 225.248 189.799 232.835 187.852 242.113C185.85 251.652 185.584 259.964 187.053 267.049C188.566 274.142 191.545 279.883 195.991 284.273C200.436 288.662 206.034 291.565 212.786 292.981C216.576 293.777 220.187 294.011 223.621 293.686C227.098 293.37 230.301 292.518 233.229 291.132C236.167 289.702 238.756 287.767 240.996 285.326C243.28 282.895 245.124 279.962 246.527 276.527L275.117 282.664C273.088 288.65 269.994 294.185 265.834 299.27C261.727 304.32 256.72 308.568 250.813 312.012C244.959 315.422 238.338 317.717 230.951 318.895C223.616 320.039 215.658 319.711 207.077 317.91C195.142 315.405 185.037 310.465 176.762 303.09C168.53 295.723 162.766 286.35 159.469 274.971C156.216 263.602 156.116 250.642 159.169 236.094C162.231 221.501 167.58 209.663 175.217 200.578C182.853 191.494 191.938 185.26 202.471 181.877C213.013 178.45 224.165 177.97 235.925 180.438C243.679 182.065 250.638 184.663 256.802 188.23C263.009 191.806 268.244 196.225 272.506 201.485C276.778 206.702 279.895 212.654 281.857 219.341C283.862 226.038 284.509 233.359 283.796 241.304Z" fill="#EEEEEE"/>
</g>
<mask id="mask2_33_450" style="mask-type:alpha" maskUnits="userSpaceOnUse" x="83" y="154" width="93" height="292">
<rect x="142.884" y="155.448" width="32.8843" height="288.704" transform="rotate(11.8515 142.884 155.448)" fill="#D9D9D9" stroke="url(#paint3_linear_33_450)"/>
</mask>
<g mask="url(#mask2_33_450)">
<path d="M227.046 237.481L207.561 233.392C207.734 230.797 207.478 228.405 206.791 226.218C206.111 224 205.057 222.014 203.629 220.259C202.201 218.505 200.438 217.02 198.34 215.806C196.271 214.597 193.932 213.719 191.322 213.172C186.607 212.182 182.254 212.492 178.262 214.1C174.277 215.679 170.854 218.491 167.993 222.535C165.138 226.549 163.048 231.715 161.722 238.032C160.359 244.527 160.178 250.186 161.178 255.009C162.208 259.839 164.237 263.748 167.263 266.736C170.29 269.724 174.101 271.701 178.698 272.666C181.278 273.207 183.737 273.367 186.075 273.145C188.443 272.93 190.623 272.35 192.617 271.406C194.617 270.433 196.38 269.115 197.905 267.454C199.46 265.798 200.715 263.801 201.671 261.463L221.137 265.641C219.755 269.717 217.648 273.485 214.816 276.947C212.02 280.386 208.611 283.278 204.589 285.623C200.603 287.944 196.095 289.507 191.066 290.309C186.072 291.088 180.654 290.864 174.812 289.638C166.685 287.933 159.805 284.569 154.171 279.548C148.567 274.532 144.642 268.151 142.397 260.403C140.182 252.662 140.114 243.839 142.193 233.934C144.278 223.998 147.92 215.938 153.119 209.753C158.319 203.568 164.504 199.323 171.675 197.02C178.853 194.687 186.445 194.36 194.453 196.04C199.732 197.148 204.47 198.917 208.666 201.345C212.893 203.78 216.457 206.789 219.359 210.37C222.267 213.922 224.389 217.974 225.725 222.528C227.091 227.087 227.531 232.072 227.046 237.481Z" fill="#EEEEEE"/>
</g>
</g>
<defs>
<filter id="filter0_d_33_450" x="196.174" y="176" width="148.419" height="152" filterUnits="userSpaceOnUse" color-interpolation-filters="sRGB">
<feFlood flood-opacity="0" result="BackgroundImageFix"/>
<feColorMatrix in="SourceAlpha" type="matrix" values="0 0 0 0 0 0 0 0 0 0 0 0 0 0 0 0 0 0 127 0" result="hardAlpha"/>
<feOffset dy="4"/>
<feGaussianBlur stdDeviation="2"/>
<feComposite in2="hardAlpha" operator="out"/>
<feColorMatrix type="matrix" values="0 0 0 0 0 0 0 0 0 0 0 0 0 0 0 0 0 0 0.25 0"/>
<feBlend mode="normal" in2="BackgroundImageFix" result="effect1_dropShadow_33_450"/>
<feBlend mode="normal" in="SourceGraphic" in2="effect1_dropShadow_33_450" result="shape"/>
</filter>
<filter id="filter1_d_33_450" x="128.372" y="157.54" width="105.789" height="205.367" filterUnits="userSpaceOnUse" color-interpolation-filters="sRGB">
<feFlood flood-opacity="0" result="BackgroundImageFix"/>
<feColorMatrix in="SourceAlpha" type="matrix" values="0 0 0 0 0 0 0 0 0 0 0 0 0 0 0 0 0 0 127 0" result="hardAlpha"/>
<feOffset dy="4"/>
<feGaussianBlur stdDeviation="2"/>
<feComposite in2="hardAlpha" operator="out"/>
<feColorMatrix type="matrix" values="0 0 0 0 0 0 0 0 0 0 0 0 0 0 0 0 0 0 0.25 0"/>
<feBlend mode="normal" in2="BackgroundImageFix" result="effect1_dropShadow_33_450"/>
<feBlend mode="normal" in="SourceGraphic" in2="effect1_dropShadow_33_450" result="shape"/>
</filter>
<linearGradient id="paint0_linear_33_450" x1="250" y1="0" x2="250" y2="500" gradientUnits="userSpaceOnUse">
<stop stop-color="#212121"/>
<stop offset="1" stop-color="#0B0B0B"/>
</linearGradient>
<linearGradient id="paint1_linear_33_450" x1="206.308" y1="100.526" x2="206.308" y2="390.23" gradientUnits="userSpaceOnUse">
<stop stop-color="#212121"/>
<stop offset="1" stop-color="#0B0B0B"/>
</linearGradient>
<linearGradient id="paint2_linear_33_450" x1="183.363" y1="120.354" x2="183.363" y2="410.057" gradientUnits="userSpaceOnUse">
<stop stop-color="#212121"/>
<stop offset="1" stop-color="#0B0B0B"/>
</linearGradient>
<linearGradient id="paint3_linear_33_450" x1="159.44" y1="154.856" x2="159.44" y2="444.559" gradientUnits="userSpaceOnUse">
<stop stop-color="#212121"/>
<stop offset="1" stop-color="#0B0B0B"/>
</linearGradient>
</defs>
</svg>
