<?xml version="1.0" encoding="utf-8"?>
<svg xmlns="http://www.w3.org/2000/svg" width="139.59" height="98.342" viewBox="0 0 139.59 98.342">
  <g id="Calque_5" data-name="Calque 5" transform="translate(-817.396 -1542.904)">
    <g id="Groupe_25" data-name="Groupe 25" transform="translate(818.916 1543.533)">
      <path id="Tracé_312" data-name="Tracé 312" d="M1160.063,2213.312c.669-.475.078-1.394.354-2.3.37-1.212.11-2.771.441-4.063v-1.236c.07-.213.36-.5.442-.707l.176-.883c.126-.2.44-.357.53-.618q-.044-.441-.089-.883l-.707.707c-.063.181-.366.37-.442.53q-.088.53-.177,1.06c-.135.288-.546.507-.618.883q.088.619.177,1.237a6.214,6.214,0,0,0-.353,2.3,2.015,2.015,0,0,1,.177,1.06,4.131,4.131,0,0,0,0,2.915" transform="translate(-1113.855 -2116.006)" fill="#080808" stroke="rgba(0,0,0,0)" stroke-miterlimit="10" stroke-width="1" fill-rule="evenodd"/>
      <path id="Tracé_313" data-name="Tracé 313" d="M915.1,1594.534c-.1-.169-.085-.127-.343-.136v-.136a.9.9,0,0,0,.274.068c-.027-.14-.017-.131-.068-.2.131-.063.05-.027.206,0l.069-.068a10.179,10.179,0,0,0-.275-2.526,1.266,1.266,0,0,1,0-.807v-.011l0,0a.222.222,0,0,1,.065-.073v-.205c-.167.09-.049-.031-.137.137-.047-.052-.09-.152-.137-.2.11-.066.006,0,.206,0a.754.754,0,0,1,0-.614c-.074-.052-.063-.043-.206-.068.1-.17-.017-.08.206-.136-.089-.258-.226-.188-.274-.273-.063-.111.123-1.34.069-1.5a36.74,36.74,0,0,0-1.3-3.754c-.1-.224.055-.236,0-.409-.044-.139-.224-.243-.274-.341-.276-.532.027-.513-.412-1.024a2.425,2.425,0,0,0-.206-1.092c-.4-.848-.777-2.18-1.166-3.072a1.38,1.38,0,0,1,.48-.068c-.1-.188-.261-.213-.411-.341H911.4a1.926,1.926,0,0,1,.823-.2.723.723,0,0,0-.411-.068c-.077-.322-.287-.356-.686-.341.093-.109.042-.079.206-.136-.074-.052-.064-.043-.206-.068.065-.171.14-.094.206-.2v-.068c-.13-.144-.148-.062,0-.2-.138-.077-.123-.036-.275,0v-.137c.245-.1.721-.05.892-.136h.137v-.136l-.137-.137h-.48a.725.725,0,0,0-.137-.341.935.935,0,0,1,.411-.068c.138-.056.194-.228.206-.546a7.821,7.821,0,0,1,.892,0h.206v-.068a3.6,3.6,0,0,0-.617-.2v-.068c.193-.027.223,0,.343-.068h.068c-.1-.184-.2-.2-.343-.136-.077-.138-.036-.123,0-.273l-.343-.068c.093-.109.042-.079.206-.137-.1-.17.016-.08-.206-.137.044-.118.013-.067.068-.136v-.137c.055-.13.069.137.069.137h.206c-.09-.166.032-.048-.137-.137.059-.217.334-.2.686-.2-.064-.266-.112-.031,0-.273h-.069c-.3-.171-1.229-.041-1.715-.341h-.069c.1-.168.085-.127.343-.136v-.069c-.244-.043-.256-.1-.412.069-.25-.3-.221-.424-.823-.41a1.914,1.914,0,0,1,.892-.068h.412v-.068a7.3,7.3,0,0,1-1.921-.478c-.668-.471-.726-1.608-1.029-2.458-.138-.387-.457-.941-.618-1.3l.069-.273h-.137l.068-.273a3.327,3.327,0,0,0-.274-.478c-.183-.447-.038-.792-.206-1.229-.174-.453-.513-1.028-.686-1.5l-.137-1.092c-.407-1.279-.789-2.5-1.3-3.755-.179-.435-.155-.855-.343-1.3-.285-.671-.748-1.378-1.029-2.048-.394-.939-.4-2.018-.823-2.936-.192-.418-.594-.845-.755-1.3-.172-.483-.083-.923-.343-1.3-.229-.329-.689-.215-.755-.751h-.137c.145.349.371.486.412.888h-.206a3.905,3.905,0,0,0,.206.409v.205h-.137c-.126-.281-.614-1.423-.48-1.638-.118-.225-.1-.139-.275-.137-.055-.378-.1-.65.137-.888v-.068c-.221.059-.106-.037-.206.136h-.069c.027-.14.017-.131.069-.2-.042-.213-.012-.166-.137-.273-.069-.111-.166.071-.274.136-.07-.171-.129-.28-.068-.41-.064-.238.041-.124-.206-.137a.757.757,0,0,1,.206-.136v-.137c-.162.06-.113.026-.206.137a.274.274,0,0,1,0-.341v-.137c-.167.09-.048-.032-.137.137-.233-.087-.231-.562,0-.819v-.136h-.069a1.68,1.68,0,0,1-.343.477v.069h-.069c.027-.141.017-.132.069-.205v-.2h-.069a.776.776,0,0,1-.137.2l-.069.068a3.026,3.026,0,0,0-1.235-1.024l-.617-.682c-.289-.214-.6-.331-.892-.546-.063-.047-.083-.234-.137-.273l-.206.068-.343-.341c-.221.028-.158.069-.274.136-.193-.081-.257-.137-.412-.068-.171-.1-.08.016-.137-.205-.357.112-.5-.037-.96,0v.069c-.77,1-.053,3.3.275,4.233.1.293.043.543.206.751a3.73,3.73,0,0,1-.892,1.229c-.113.1-.316.093-.412.2a10.947,10.947,0,0,0-.755,1.229c-.505.768-1.2,1.543-1.715,2.321-.419.629-.584,1.33-.96,1.98-.64,1.1-1.364,2.289-1.989,3.414-.138.249-.086.4-.206.682a25.522,25.522,0,0,1-1.441,2.731l-.068.409c-.416.834-.813,1.883-1.235,2.731a13.251,13.251,0,0,1-.617,1.57v.137H884.1l-.172.375a5.593,5.593,0,0,0-.24.717,4.933,4.933,0,0,1-.274.478c-.22.538-.2,1.054-.412,1.638a5.205,5.205,0,0,0-.412,1.161,2.81,2.81,0,0,1-.755.2,3,3,0,0,1-.412.751.377.377,0,0,0,.275.273v.136c-.148-.063-.1-.059-.206-.136-.072.317.112.425-.137.682.132.205.072.093.274.068.049.2.037.251.206.341a16.128,16.128,0,0,1-.823,2.8q-.035.478-.069.956c-.3,1.108-.52,2.3-.892,3.414-.356,1.07-.684,2.3-1.1,3.413a24.409,24.409,0,0,0-.961,2.525v.819c-.337,1.539.639,2.386.892,3.549l-.137,1.843c-.1.218-.383.328-.48.615a.594.594,0,0,0,.137.819v.478c0,1.529-.176,2.659-.137,4.1a8.249,8.249,0,0,1-.068,1.844v2.39q-.068.99-.137,1.98v1.433a17.694,17.694,0,0,0-.206,4.915,6.645,6.645,0,0,1-.206,2.321l.069.819a12.821,12.821,0,0,0,0,2.321c.08.4-.113,1.016-.069,1.3.3,1.909-.521,4.312-.137,6.007a5.694,5.694,0,0,1-.48,2.936l-.137.888c-.076.208-.352.472-.412.682l.137.888c-.076.364-.512,1.533-.137,2.117a.7.7,0,0,0,.137.485.466.466,0,0,0,.412-.007c.078-.445-.254-1.011-.069-1.57.037-.112.238-.3.274-.409a2.389,2.389,0,0,0,0-.683q-.034-.512-.069-1.024c.2-.637.693-1.261.892-1.844v-.887c.033-.6.032-1.451,0-2.048a16.142,16.142,0,0,1,.343-3.277,8.477,8.477,0,0,0-.068-1.57,5.58,5.58,0,0,1,.206-2.048c.239-1.063-.073-2.441.137-3.345v-1.434a6.977,6.977,0,0,0,0-2.389,12.892,12.892,0,0,1,.206-3.755v-1.707c.111-.466.172-1.129.275-1.57q.034-1.6.069-3.209c.219-.925-.046-2.31.137-3.277.213-1.123.162-2.014.412-3,.157-.623-.07-1.137.137-1.707.052-.144.269-.286.343-.41.208-.348.259-.64.48-.956.282-.4.818-.6,1.1-1.023a.594.594,0,0,1,.343.068c.61.211,1.078,1.436.892,2.389-.353,1.807-.671,4.21-1.1,6.213-.057.267.253.461.206.751a11.138,11.138,0,0,1-.48,1.229c-.068.308.151.274.206.41a9.252,9.252,0,0,1,.069,1.638q-.034.649-.069,1.3a20.813,20.813,0,0,1,0,2.526v1.911a24.143,24.143,0,0,0-.343,4.028,8.135,8.135,0,0,1,.068,1.229,8.966,8.966,0,0,0-.068,1.229c.159,1.348-.169,2.836-.069,3.687q-.034.887-.069,1.775.1,3.141.206,6.281a2.73,2.73,0,0,0-.068.956q-.035.751-.069,1.5c0,1.685-.356,2.8-.412,4.369.24.322.55.023.686-.068.2-.319.02-.8.137-1.229.248-.913.127-2.322.274-3.072.08-.408-.11-1,.069-1.3v-.068l.137.068v-.068c.1-.23-.246-.377-.137-.819a11.916,11.916,0,0,0,.137-3.072,4.8,4.8,0,0,0,.068-1.024,16.811,16.811,0,0,1-.206-4.3,8.749,8.749,0,0,0,0-2.185c0-1.185.1-2.307.137-3.345v-2.048c.686-2.871.435-6.719.411-9.763,0,0,.129-.5,0-.546a10.735,10.735,0,0,1,.755-2.867c.1-.29.056-.535.206-.751.034-.5.016-.735-.343-.682a18.412,18.412,0,0,1,.686-3.55,17.928,17.928,0,0,0,.206-2.047l-.068-1.092c.466-1.428,1.638-2.654,2.127-4.095.279-.824.093-1.731.343-2.661a8.727,8.727,0,0,1,1.166-1.98c.3-.56.318-1.288.686-1.775.022-.019,1.655.112,2.058.137,1.42.087,2.358.285,4.048.273-.081-.055-.115-.055-.275-.068.459-.286,1.757.071,2.127-.068h.068l-.068.137c1.129-.023,2.587.062,4.048.068a19.2,19.2,0,0,0,.48,3.277,24.381,24.381,0,0,1,.137,3.753l.068.068a1.266,1.266,0,0,0,.412-.068,9.459,9.459,0,0,0-.137-3.071c-.133-.619.271-.893.137-1.433a9.088,9.088,0,0,1-.412-2.458,7.463,7.463,0,0,1,1.578.068c.839,0,.718.6.961,1.161.363.835.819,1.78,1.1,2.662.162.515.11.851.275,1.365.992,3.1,2.269,6.171,3.5,9.077a27.621,27.621,0,0,0,1.852,4.506c.262.38.828.522,1.029.751a.433.433,0,0,1,.343-.137,1.778,1.778,0,0,1,.412-1.024c.187-.168.247-.055.343-.342h.206c.027-.14.017-.131.068-.2v-.068c.192.1.155.192.275.341v.068h.137c-.184-.5.03-.481.069-1.024h.274v.341c.17-.1.109-.028.137-.273l.343-.068c.015-.158.013-.193.068-.273.132-.072.079-.022.274,0a2.476,2.476,0,0,1,.137-.956l.069.068c.306.024.151.046.274.136.124.068.124.018.343,0A5.144,5.144,0,0,1,915.1,1594.534Zm-3.156-21.229c.118-.044.067-.013.137-.068h.137v.068c-.118.044-.067.013-.137.068h-.137Zm-17.22-3.209c-.726-.055-1.686.3-2.2.068h-.823a14.487,14.487,0,0,1,.618-1.434c.228-.593.251-1.039.48-1.639a22.8,22.8,0,0,1,1.784-3.618c.2-.332.22-.668.412-1.024.3-.563.844-1.076,1.166-1.638.141.027.132.017.206.068.693.253.714,1.668.96,2.39.171.5.494.986.686,1.434.449,1.046.6,2.05,1.029,3.072a8.829,8.829,0,0,1,.892,2.39C898.05,1570.18,896.556,1570.236,894.73,1570.1Zm12.349,11.743h-.069v-.136h.069Zm3.568,8.872c.118.044.067.013.137.068C910.664,1590.736,910.716,1590.767,910.646,1590.711Zm.343-15.221.069-.136S911.108,1575.395,910.989,1575.49Zm2.95,20.341h-.069v-.136h.069Zm.823-1.775c.118.044.067.013.137.068C914.781,1594.081,914.832,1594.111,914.762,1594.056Zm.206-.41H914.9v-.136h.069Zm0-.2h-.137v-.137l.137.068Zm.068-.409v.137h-.206v-.137Zm-.411,1.3v.068c-.188-.047-.111.042-.137-.136Zm0,.615c-.136.036-.113-.183-.206,0h-.068a1.025,1.025,0,0,1,.137-.274c.11.093.08.042.137.205C914.679,1594.918,914.642,1594.878,914.625,1594.944Zm0-2.594h.206C914.713,1592.41,914.743,1592.41,914.625,1592.35Zm.274,2.321v-.136h.069v.136Zm.137.274c.055.08.055.114.069.272C915.049,1595.137,915.05,1595.1,915.036,1594.944Zm.069-.205v.137h-.137v-.137Zm-30.117,4.438a7.108,7.108,0,0,0-.343.887,25.313,25.313,0,0,0-.069,6.076c.133.744-.5,1.843-.068,2.526a3.978,3.978,0,0,0,.137,1.571h.137a5.7,5.7,0,0,0,.274-2.048v-.956c.426-1.744.226-4.373.48-5.939a3.755,3.755,0,0,0-.206-2.253C885.127,1599.071,885.1,1599.075,884.988,1599.177Zm12.829-54.409h-.137C897.788,1544.851,897.735,1544.878,897.817,1544.768Zm0,.273h.069c-.044-.118-.014-.067-.069-.137Zm-19.552,8.875.137.137c.065.017,2.44-.086,2.607-.137l.068-.136c.192-.026.067.112.137.136a7.164,7.164,0,0,0,1.921-.136c.4.008.4.067.411-.2.047.029.127.2.137.2a8.629,8.629,0,0,0,2.058-.341.413.413,0,0,0,0-.341l.96-.068c-.12-.261-.15.041-.275-.273l-.411.273c-.088-.173-.073-.359-.137-.478-.064-.044-.476-.025-.549-.068l-.206-.136v-.068a5.291,5.291,0,0,0,.892.068v-.068l.068-.068h-.068v-.136h-.206c.1-.4.36-.271.617-.478h.069v-.136l-.412.068v-.205c.36.1.657-.118.961.069h.206v-.069a1,1,0,0,0-.343-.068.753.753,0,0,1,.206-.137c-.237-.137-.343.055-.48-.136-.165.092-.069.067-.137.273-.6-.048-.333-.2-.823-.273.092-.165.216-.158.343-.273.268.054.224,0,.274.273l.069-.068c.185-.113.069.011.068-.2h.412c-.07.055-.017.025-.137.068.182.1.193.068.274-.136.185.113.069-.011.069.2a2.018,2.018,0,0,1,1.441.41h.48a5.283,5.283,0,0,0-.549-.682,2.037,2.037,0,0,1-.755-.205,6,6,0,0,1-1.715.136,2.149,2.149,0,0,1,.343-.2c-.121-.073-.346-.112-.549-.2l-.069-.068c.21-.175.6-.176.823-.341.048-.165.027-.042-.069-.2.172-.035.059-.012.275,0-.1-.17.017-.08-.206-.136a1.041,1.041,0,0,1,.412-.341v-.137a4.721,4.721,0,0,0-.823.41h-.068c.083-.1.178-.122.274-.2.048-.165.028-.043-.068-.2a2.688,2.688,0,0,0,.823-.41l.068-.069h-.068c-.089-.094-.9.251-1.166.205l-.068.068c.042-.213.012-.166.137-.273-.138-.077-.123-.035-.275,0,.164-.27.512-.181.686-.478h.137c-.146-.095-.26-.05-.412,0a.962.962,0,0,1-.068-.546c-.187.071-.151.1-.275.2-.091-.217-.057-.182-.343-.2v-.068a2.392,2.392,0,0,0,.617-.137l.137-.068v-.137a1.1,1.1,0,0,0-.549.068h-.137l.068-.341a1.934,1.934,0,0,0-1.3.068c-.544-.05-1-.668-1.784-.819l-2.813.137a3.79,3.79,0,0,0-1.235,0c-1.276.109-2.3-.014-3.5.2l-.549-.068a7.9,7.9,0,0,1-1.852.137,3.045,3.045,0,0,0-1.029-.069,11.239,11.239,0,0,1-2.95.2l-.217.034c0-.023-.194.023-.194,0a1.206,1.206,0,0,1-.754-.074c-.229.125-.216,0-.275.108-.162.238-.641.125-.961.205-.949.237-1.961.048-2.95.2a4.683,4.683,0,0,1-1.578-.137l-2.813.137c-.993-.178-2.594-.057-3.43-.2-.731-.129-1.4-.014-2.264-.205a3.074,3.074,0,0,0-1.166-.136,1.736,1.736,0,0,1-.618.136c.074.052.064.043.206.069a6.449,6.449,0,0,1-1.509.273c.091.166-.032.048.137.137-.116.086-.307.113-.412.2a.919.919,0,0,0-.274.478,2.531,2.531,0,0,1,.823.956c-.012.053.021.045-.137.137v.136c.141-.027.132-.017.206-.068h.48c-.044.118-.013.067-.069.137-.1.044-.03.085-.137,0a.766.766,0,0,0-.549.2c.065.3.176.205,0,.409l.068.068c.132.072.08.022.275,0l-.275.273c.088.25.072.162.069.546.469.2.878.424,1.372.615-.1.048-.321-.028-.48.068h-.069c.275.214.744.217,1.029.409.183.13.087.306.274.546a2.2,2.2,0,0,0,.961.547c.032.212.043.164,0,.341a1.669,1.669,0,0,0,.755-.068h.068l-.068.136h.618v.068l-.686.069v.136c.516-.047,1.434-.342,1.852,0l.137.068v.2c.328.005.659.227.892.137.18-.07.756-.369,1.1-.273.1.028.319.3.411.341.165.066.377-.054.549,0a.716.716,0,0,1-.48.136c.312.186.883-.136,1.235-.068.191.037.378.284.549.341h.549a3.094,3.094,0,0,1,.549.341,28.824,28.824,0,0,0,.274,3.482,1.135,1.135,0,0,1-.069.478,3.044,3.044,0,0,0,.206,1.57c.082.232-.033.519.069.683a.713.713,0,0,0,.137.41,1.255,1.255,0,0,0,.412-.068c-.113-1.487-.137-2.633-.137-4.233,0-.629-.144-1.72.137-2.116.088-.22.219-.235.343-.41,1.046.018,1.227,1.173,1.441,1.98.064.243-.027.517.068.682.032.307.089.292.206.478h.343c-.014-.618.051-1.2,0-1.775-.009-.1-.12-.282-.069-.478.075-.285.285-.4.343-.751a.835.835,0,0,1,.617.2,22.942,22.942,0,0,1-.412,4.574v1.161c0,1.166,0,1.853,0,2.8,0,.264.087.739.069.888-.093.757-.1,1.895-.206,2.935a9.4,9.4,0,0,1,.069,1.5,6.51,6.51,0,0,0-.137,1.638c.027.146.178.308.137.547a16.314,16.314,0,0,0,.137,4.3,7.385,7.385,0,0,1-.069,2.526,10.152,10.152,0,0,0,.069,1.229,4.012,4.012,0,0,1-.137,1.092,5.678,5.678,0,0,0,.343,2.526,36.933,36.933,0,0,0-.206,3.617c-.111.494.19.926.206,1.365a7.283,7.283,0,0,0-.069,1.775,24.509,24.509,0,0,0,1.166,2.866c.046.1.25.3.274.41.094.422-.2,1.949.068,2.389v.683l-.274,3.072a19.061,19.061,0,0,0-.206,4.437v1.775c-.3,1.907-.078,5.057-.206,7.032v1.843a2.669,2.669,0,0,1,.137,1.161,4.224,4.224,0,0,0-.275.546,5.242,5.242,0,0,0,.069,1.571c.013.115-.068.524-.069.751a8.121,8.121,0,0,1,0,1.98v1.229a17.728,17.728,0,0,1-.068,3.413v1.98a8.258,8.258,0,0,0,.068,2.867c.079.381-.121.574-.068.82.148.693.424,2.2,0,2.8v.068c.132.131.536.34.686-.068,0-3.042-.4-5.435-.069-7.92.049-.365-.034-1.242.069-1.707.2-.918-.254-2.323,0-3.346.127-.51.2-1.224.343-1.843,0-.5-.252-1.354-.252-1.752s.9-1.718.526-2.276.086-1.436-.137-2.389a4.274,4.274,0,0,1,.069-1.775q-.034-1.74-.069-3.482c0-1.424.224-2.827.206-4.165a20,20,0,0,1,.686-6.076,7.251,7.251,0,0,1,.686-1.229,26.125,26.125,0,0,0,1.372-3,28.221,28.221,0,0,1,1.509-3.344,1.009,1.009,0,0,1,.206-.819v-.069l.137.069c.366-1.268.932-2.784,1.372-4.232l.686-3.618a8.378,8.378,0,0,0-.069-1.706,19.9,19.9,0,0,0,.069-2.117,13.417,13.417,0,0,1-.137-2.526q-.034-.273-.068-.546c.15-.706.195-1.537.343-2.185.131-.572-.04-1.355.069-1.844.172-.773-.153-1.419-.069-1.98.229-1.521.234-4.041.412-4.37a4.744,4.744,0,0,0,.068-.956c-.045-.043-.189.075-.137-.068.5-1.4.144-2.4.343-3.687a1.176,1.176,0,0,0-.411-.068c.074-.052.063-.043.206-.068v-.2h.206a7.39,7.39,0,0,1-.068-2.321v-.137h-.069a1.338,1.338,0,0,1-.137.273v.069a3.14,3.14,0,0,1-.137-1.024,1.042,1.042,0,0,0-.274.137q.034.171.069.341c-.219-.021-.165-.128-.289-.068-.052-.074-.1,0-.123-.137.141-.027.132-.017.206-.068h.068a1.02,1.02,0,0,0-.137-.273l-.069-.068c-.052.073-.043.063-.068.2-.311-.084-.277-.236-.617-.137v-.136c.834-.154,1.948.043,2.881-.137.026-.005.46-.137.48-.137C877.074,1553.928,877.821,1554.159,878.265,1553.916Zm7.478-1.3.069.069v.068c-.265-.009-.293,0-.412-.137Zm2.058-1.911h.206v.136H887.8Zm-1.852.751c-.1.154-.152.087-.069.273v.068c-.162-.149-.1-.242-.137-.409Zm-.206.682v.068c-.355.006-.392.044-.412-.136A1.84,1.84,0,0,1,885.742,1552.141Zm-34.851-2.594a.8.8,0,0,1,.206.136C850.935,1549.624,850.984,1549.658,850.892,1549.547Zm.343.068h.206C851.322,1549.676,851.353,1549.675,851.235,1549.615ZM857,1553.37h-.068v-.136H857Zm1.578.273h-.137v-.136l.137.068Zm15.779,4.165h-.068v-.136h.068Zm.069-1.3v.068c-.162-.06-.113-.026-.206-.137Zm-38.712-11.318v.232h.083C835.761,1545.265,835.774,1545.275,835.711,1545.192Zm20.353,48.21.083-.231c.06-.126-.1-.043,0-.232-.089-.059-.076-.048-.248-.077v-.077l.414-.078v-.232c.25-.094.219.044.331-.155.066-.152,0-.175-.165-.309.057-.212-.051-.125.165-.155-.053-.133-.016-.075-.083-.154.158-.071.061-.031.248,0-.117-.328-.006-.166-.331-.154.112-.124.05-.09.248-.155v-.231a.6.6,0,0,0-.331.155h-.165a1.172,1.172,0,0,1,.579-.386c-.02-.412-.091-.558-.5-.618a1.6,1.6,0,0,1,.5-.386c-.132-.244-.054-.094-.331-.078a2,2,0,0,0-.248-1.854c.142-.079,0,0,.165,0l.083-.077v-.232l-.5.078c.112-.124.051-.09.248-.155-.109-.177-.178-.12-.331-.232h-.083c.06-.064.257-.022.414-.155.057-.06.109-.172.165-.232-.167-.088-.149-.04-.331,0,.359-1.243-.922-3.514-1.406-4.48-.185-.369-.087-.6-.248-1a4.023,4.023,0,0,1-.579-1.391,9.355,9.355,0,0,1,2.316.077c.039-.175.071-.086,0-.232.064-.053.184-.1.248-.154.17-.111-.184-.281-.414-.309.258-.152.678-.018,1.075,0v-.077a3.267,3.267,0,0,1-.993-.387c-.143-.05-.081-.015-.165-.078h.165c.193-.076.292.143.579-.077.079-.164-.025-.2,0-.386-.2.068-.136.029-.248.154h-.083c.083-.205.11-.131.166-.386-.17.031-.159.019-.248.077a.707.707,0,0,1-.331-.232h-.083l.166-.154c-.16-.082-.1-.025-.331,0v-.077c.143-.05.081-.015.165-.078.3.042.3.016.414.232.192-.017.233-.015.331-.077.063-.083.052-.072.083-.232h-.579c.449-.26.7.133,1.076-.077.006-.117.023-.15-.249-.232v-.155a1.972,1.972,0,0,0,.91.078c-.053-.134-.016-.076-.083-.155-.168-.07-.266,0-.579,0,.1-.062.138-.062.331-.078a1.327,1.327,0,0,0-.91-.232c-.053-.133-.016-.075-.083-.154a.921.921,0,0,1,.5-.078v-.077c-.161-.05-.36-.043-.413-.078H856.4v-.232c.17.031.16.019.248.078.063-.083.052-.072.083-.232a3.2,3.2,0,0,1-1.572-.309h-.083c.1-.158.661-.024.91-.232h.165v-.154c-.294.035-.21-.041-.331.154a.549.549,0,0,1-.248-.695c-.064-.054-.184-.1-.248-.155-.237-.1-.033-.039.083-.232a17.283,17.283,0,0,1-2.317-.7h-.165c-.158-.062.165-.077.165-.077v-.155c-.266.068-.128-.042-.248.155-.468,0-.4.068-.414-.232-.346-.039-.5-.164-.662.077-.651-.26-.924-1.684-1.324-2.627a27.46,27.46,0,0,0-1.572-2.936c-.29-.5-.791-.881-.827-1.623h-.248c.145-.608.061-.424-.083-.927l.083-.309-.414-.232c-.031-.044.087-.413,0-.618-.107-.25-.293-.322-.414-.541l-.083-.7-.331-.309c-.189-.383-.173-.82-.414-1.159-.159-.071-.061-.031-.248,0,.122-.192-.021-.09.248-.154a2.008,2.008,0,0,0-.331-.85l.083-.309c-.091-.18-.351-.209-.414-.309v-.463l-.248-.078c-.078-.16.14-.2.166-.309a9.093,9.093,0,0,1-.91-2.7,28.87,28.87,0,0,0-3.806-7.958,5.534,5.534,0,0,0-1.9-1.391l-.579-.078-.166-.232-.579.077-.083-.232c-.413-.247-.9-.176-1.241-.464-.119-.063-.206.059-.166-.154h.083a5.619,5.619,0,0,0-.993-.464c-.341-.084-.165.188-.414.077-1,.02-1.02.879-1.489,1.391-.01.433.156.406.248.773.067.266-.142.716-.165.927a8.247,8.247,0,0,0,.248,2.859c.092.284.783,1.713.662,2.009-.441,1.086-1.068,2.39-1.572,3.477-.3.652-.291,1.261-.579,1.932-.515,1.2-1.068,2.634-1.654,3.786-.028.18-.055.361-.083.541-.256.536-.637,1.225-.91,1.777l-.083.619c-.41.69-.9,1.58-1.241,2.318l-.248,1.159c-.247.563-.5,1.422-.827,2.009-.083.151-.345.365-.414.541-.161.414-.039.793-.248,1.159-.079.139-.34.291-.414.464a9.016,9.016,0,0,1-.579,1.622c-.559.4-2.043.379-2.813.618a20.482,20.482,0,0,1-1.9.773c-.176.159-.061.281-.331.386a1.893,1.893,0,0,1-.993-.078h-.083a.959.959,0,0,0,.248.541v.077c.261-.124.1-.051.083-.309.582.171.439.6.91.927h.248l-.083.231c.1.3.379.38.827.387-.109.188.039.054-.166.154v.155c.285.067.654.233.91.077h.414c-.122.193.02.091-.248.155.1.114.215.138.331.232.087-.149.026-.089,0-.309a2.533,2.533,0,0,1,.662.155c.085.133,0,0,0,.154a1.255,1.255,0,0,0,.413.078c-.166.244-.256.113-.579.078a.9.9,0,0,0,.414.232,13.7,13.7,0,0,1-1.075,2.24c-.348.881-.381,1.7-.745,2.549a5.7,5.7,0,0,0-.5,2.7,10.564,10.564,0,0,0,1.572,2.935,9.865,9.865,0,0,1,1.076,3.167,5.255,5.255,0,0,1,.083,2.009,7.888,7.888,0,0,0-.414,1c-.072.351.215.769.248,1.082a20.524,20.524,0,0,1-.083,2.936c-.134.627.219,1.927,0,2.781a15.238,15.238,0,0,0-.331,3.786,1.957,1.957,0,0,0-.083,1.082,12.215,12.215,0,0,1-.083,2.4c-.069.16-.61.344-.414.7.527.943.166,4.054.331,4.868a1.171,1.171,0,0,1-.083.695c-.142.234-.351.572-.166.464a4.261,4.261,0,0,1,.166,2.164q-.083,2.317-.166,4.636c.007,2.042.475,4.628.248,6.258l.331,2.4c-.089.315-.418.751-.5,1q.041.387.083.772l-.248.232c-.066.272.219.437.248.618.042.256-.223.773-.248.927s.144.3.166.386a4.558,4.558,0,0,1-.331,2.086.856.856,0,0,1,.165.232.9.9,0,0,0,.5-.154,4.794,4.794,0,0,1,.331-1.622q-.083-.541-.166-1.082c.244-1.252.3-2.423.579-3.554.18-.721-.49-1.175-.331-1.777a5.8,5.8,0,0,0-.082-2.55q.041-1.159.082-2.318c-.009-2.092,0-3.9,0-5.95a13.429,13.429,0,0,1,0-3.013c.172-.458.221-.541.166-.541.109-2.474-.172-5.591.414-7.418.154-.479.008-2.093-.248-2.086a21.275,21.275,0,0,1,.414-4.482c.187-.8,0-1.73.166-2.472l-.083-.541c.057-.2.216-.6.248-.773v-2.086a22.775,22.775,0,0,0,.331-4.1,2.56,2.56,0,0,1-.331-1,5.014,5.014,0,0,0,.5-.7c.832-1.045,1.809-2.021,2.647-3.09l1.49-1.39a18.41,18.41,0,0,0,3.309-5.021,14.04,14.04,0,0,1,2.647-.232c1.746-.255,4.067-.209,5.875-.618.833-.188,2.262-.1,2.9-.463h.166v.309h-.248l.331.85a1.809,1.809,0,0,0,.5,0v.077a1.4,1.4,0,0,0-.5.387h-.083a8.061,8.061,0,0,1,.579.695c.142.246.106.038.248.155h.166l-.166.155c.089.059.077.048.248.077a.9.9,0,0,1-.166.232c.115.257.024.156.248.154.021,2.067,1.138,3.75,1.82,5.253.759,1.671,1.2,3.472,1.986,5.176a10.445,10.445,0,0,0,.744,1.082c.178.283.152.57.331.85l.414.387q.083,2.356.165,4.713.166,1.7.331,3.4a6.12,6.12,0,0,0,0,2.318,14.6,14.6,0,0,1,.414,5.563q.041.619.083,1.236c-.127.5-.391,1.108-.5,1.546a4.916,4.916,0,0,0,.166,1.7v1.468c.087.3.388.869.248,1.159a1.482,1.482,0,0,0,.166.85.915.915,0,0,0,.414-.154,4.42,4.42,0,0,0-.083-1.777v-1.313a4.29,4.29,0,0,1-.082-1.7,9.73,9.73,0,0,0,.414-4.017,12.53,12.53,0,0,0,.083-2.087,22.044,22.044,0,0,1-.579-5.486,8.794,8.794,0,0,1,0-1.623c.343-1.475-.563-4.595.083-5.563v-.386h.082a.927.927,0,0,1,.083.309c.218-.135.115,0,.083-.232.272.153.291.552.662.387.059.077.108.308.165.387.127.065.284.012.579,0a.95.95,0,0,1-.414.154v.077c.067.08.031.019.083.154.237.01.12.055.248,0h.166v-.232c.266-.067.128.042.248-.154h.248c-.122.192.02.09-.248.154l.083.077v.077a1.193,1.193,0,0,0,.745-.7c.234.033.237.189.414.155s.343-.263.579-.155h.083c-.061-.428-.295-.628-.083-.85-.1-.062-.138-.062-.331-.077a.427.427,0,0,1,.248-.309v-.078c-.162-.034-.106.033-.165.078-.063-.083-.052-.072-.083-.232-.058-.187-.034-.048.083-.232l-.166-.154c-.3-.015-.452-.059-.579,0h-.083c.119-.188.379-.215.662-.232-.085-.062-.02-.029-.166-.078v-.154c.367.073.249.2.5,0,.221.273.184.2.166.464a.855.855,0,0,1,.5-.155,1.353,1.353,0,0,0-.91-.464A.535.535,0,0,1,856.064,1593.4Zm.331-3.4s.062.047-.083.155Zm-.248-11.51v.077c-.294-.026-.276,0-.414-.154Zm-.414.154.414.078v.077c-.413.02-.322-.061-.331.232a1,1,0,0,1-.414-.155l-.083-.077A2.444,2.444,0,0,0,855.734,1578.648Zm.662-1.854a1,1,0,0,1-.414-.155C856.228,1576.674,856.261,1576.678,856.4,1576.794Zm-.579-.541c-.143-.05-.081-.015-.165-.077C855.794,1576.226,855.732,1576.191,855.816,1576.253Zm0,.927v.077l-.083.078c-.2-.068-.136-.029-.248-.155Zm-.5.309.662.078a1.908,1.908,0,0,1-.827.154Zm0-2.4h.083v.155h-.083Zm-.5,2.473.083.078h.166c-.122.192.02.09-.248.154Zm-33.839.232h-.166v-.154l.166.077Zm.662.618a1.6,1.6,0,0,1-.579-.464.845.845,0,0,1,.5.309h.083Zm.662.077c-.2.073-.416.152-.579.232v-.078c-.125-.05.1-.078.165-.232h.414Zm1.737,30.13a.121.121,0,0,1-.083.078C823.976,1608.089,824.2,1608.395,824.045,1608.624Zm6.784-44.966h-.083v-.154h.083Zm3.061-3.554c.143.05.081.015.165.078C833.914,1560.132,833.976,1560.167,833.891,1560.1Zm.248-6.026v.077h-.083l.083-.541.166.077A.878.878,0,0,1,834.139,1554.078Zm3.972,11.744.083.078v.077c-.339-.038-.283-.021-.414-.232C838.013,1565.85,837.892,1565.824,838.111,1565.822Zm-.993-3.786h.165v.155h-.165Zm-.083.7h.083v.154h-.083Zm-.745,8.576c-.143-.05-.081-.015-.165-.077C836.268,1571.281,836.206,1571.246,836.29,1571.308Zm4.716,7.727c.143.05.081.015.166.077C841.029,1579.062,841.091,1579.1,841.006,1579.035Zm.91-4.945c.143.05.081.015.166.077C841.939,1574.117,842,1574.152,841.917,1574.09Zm-3.475-.618a8.188,8.188,0,0,1-2.565.309c.1-1.413,1.083-2.445,1.406-3.632l-.083-.386c.083-.266.309-.773.414-1.082a6.074,6.074,0,0,0,.331-2.163c.123-.191.035-.123.331-.155a.8.8,0,0,1,.166-.695c-.089-.059-.077-.049-.248-.078v-.077a1.689,1.689,0,0,0,.331-.154,10.79,10.79,0,0,1,1.158,2.627h.083l-.165.154c.122.192-.021.091.248.155v.232a1.264,1.264,0,0,0,.414.078c-.111.682,1.2,2.839.745,3.245V1572l.166-.155h.083l.083.541c.293-.05.28-.053.414-.232h.166v.541c-.17-.031-.159-.019-.248-.078h-.083v.232c.143-.05.081-.015.165-.077H842a2.464,2.464,0,0,1,.083.618A12.791,12.791,0,0,0,838.442,1573.472Zm6.04,6.953-.083.077v-.154c.143.05.081.015.166.077Zm.744,1.391c-.143-.05-.081-.015-.165-.078-.143-.049-.081-.015-.166-.077a1.13,1.13,0,0,1,.331-.078Zm.414-21.326c-.2-.068-.136-.029-.248-.154l.248.077Zm6.867,34.844h-.083v-.154h.083Zm.331-.463v.077c-.208-.126-.086-.014,0-.232h.083C852.957,1594.867,852.885,1594.816,852.838,1594.871Zm.331-11.587c-.143-.05-.081-.015-.165-.077C853.146,1583.257,853.084,1583.222,853.169,1583.284ZM853,1595.412l.082-.154S853.147,1595.3,853,1595.412Zm.082-.232H853c.1-.207.015-.117.165-.309h.083A1.132,1.132,0,0,1,853.086,1595.18Zm2.4-.078h.083v.155h-.083Zm-.5.309h.331v.077l-.331.078Zm1.324-3.09h-.166v-.155l.166.077Zm0-.541v.077h-.331v-.077c.143-.05.081-.015.165-.078Zm-.414-1.7.083-.232.165.154v.232h-.083C855.955,1590.048,856.1,1590.181,855.9,1590.081Zm.331,1,.083-.154S856.374,1590.977,856.23,1591.085Zm.165-.386v.078h-.165a.923.923,0,0,1-.083-.309C856.331,1590.557,856.272,1590.579,856.4,1590.7Zm-.414-2.317v.232s-.082.012-.083-.232Zm.248.772v.077l-.083.078h-.414v-.154Zm-.414-.232h-.165v-.154h.165Zm-.083-3.012c-.143-.05-.081-.015-.165-.077C855.711,1585.883,855.649,1585.848,855.734,1585.91Zm0,.309c-.143-.05-.081-.015-.165-.077C855.711,1586.192,855.649,1586.157,855.734,1586.219Zm-1.075,2.395c-.143-.05-.081-.015-.166-.077C854.635,1588.586,854.573,1588.551,854.658,1588.614Zm-.166,5.562h.166v.155C854.431,1594.277,854.524,1594.378,854.493,1594.175Zm-.083-2.7c.143.05.081.015.166.078C854.432,1591.5,854.494,1591.534,854.41,1591.471Zm.083.309h.166v.154h-.166Zm0-2.008c-.143-.05-.081-.015-.165-.077C854.47,1589.745,854.408,1589.71,854.493,1589.772Zm-.165.772h.083v.154h-.083Zm.083,3.94s.062.046-.083.155Zm-.331-3.708h.083v.154h-.083Zm0,3.476c.065.048.021,0,0,.078v.154C853.871,1594.359,853.993,1594.47,854.079,1594.253Zm-.166-3.863c-.143.069-.106.068-.248,0Zm0,2.549c-.143-.05-.081-.015-.165-.077C853.891,1592.912,853.829,1592.877,853.913,1592.939Zm-.5.541h.166v.155h-.166Zm.083,2.627v.077c-.259-.111.031-.2.165-.387h.166C853.741,1596.033,853.755,1596.027,853.5,1596.107Zm.248-1.082v-.154h.331v.154C853.875,1594.977,853.947,1595,853.748,1595.025Zm.414,1.159H854a1.4,1.4,0,0,1,.248-.387l.165.078C854.308,1596.065,854.262,1595.994,854.162,1596.184Zm.248-1.082c-.258-.112-.034-.114.083-.309h.166v.078C854.466,1594.957,854.508,1594.943,854.41,1595.1Zm.331.464c.143.05.081.015.165.077C854.763,1595.594,854.825,1595.628,854.741,1595.567Zm-.083-.309h-.083l.083-.232.248.077C854.843,1595.156,854.722,1595.2,854.658,1595.257Zm.248-.618c-.143-.05-.081-.015-.165-.078C854.884,1594.612,854.822,1594.577,854.906,1594.639Zm-.165-2.318s-.325-.017-.165-.078l.083-.077c.143.05.081.015.165.077Zm.165.85h-.083v-.155h.083Zm0-3.708h.083v.154h-.083Zm.083,1.081.083-.155S855.133,1590.436,854.989,1590.545Zm.248,3.09c-.206-.114-.1.019-.165-.232h.165Zm0-1.854h-.082v-.154h.082Zm.083-1.7-.083.077V1590c.143.05.081.015.166.078Zm.083-1,.166.078v.077C855.341,1589.178,855.435,1589.279,855.4,1589.077Zm.083,2.008.083-.078a1.13,1.13,0,0,0,.331.155c-.142.069-.106.068-.248,0C855.651,1591.162,855.326,1591.145,855.485,1591.085Zm.166.541c-.143-.05-.081-.015-.166-.077C855.628,1591.6,855.567,1591.564,855.651,1591.626Zm-.166.85c.143.05.081.015.166.077h-.083l-.083.077Zm-17.954-46.047v.154h.083C837.561,1546.449,837.6,1546.507,837.531,1546.428Zm48.9,1.07v-.068l-.206-.068C886.237,1547.542,886.183,1547.469,886.428,1547.5Zm51.247.137-.137-.137C937.447,1547.594,937.492,1547.7,937.676,1547.635Zm.823.205v-.137a2.331,2.331,0,0,0-.549-.068c.116.085.307.112.411.205ZM956.13,1563.2c.012-.342.016-.564-.205-.683.131-.063.05-.027.205,0a1.787,1.787,0,0,0-.892-1.5,1.153,1.153,0,0,0-.069.41c-.239-.059-.185-.095-.343-.2.091-.156.148-.106.274-.2h.068v-.137a6.113,6.113,0,0,1-.686.069,5.945,5.945,0,0,0-2.4-2.731l.137-.136v-.069a5.1,5.1,0,0,0-.686-.136,14.942,14.942,0,0,0-1.029-2.048h-.343a1.525,1.525,0,0,1-.823-.956c-.118-.044-.067-.014-.137-.068h-.069a.956.956,0,0,0,.069.273l-.618-.41c.045-.241.047-.231.206-.341a.588.588,0,0,0-.206-.273v-.068a3.483,3.483,0,0,1,.892.41v.068c.134.03.088-.03.137-.068h.069c-.074-.051-.063-.043-.206-.068v-.2a.719.719,0,0,1-.48-.273h-.137v-.137c.188.047.111-.042.137.137a1.348,1.348,0,0,0,.686-.205c.075-.033-.2-.227-.274-.341a1.073,1.073,0,0,1-.343-.068l-.069.068a.6.6,0,0,0,.412.205v.136c-.41-.122-.573-.411-1.029-.478-.008-.213-.05-.135-.206-.341h-.137l-.068.068c.086.176.172.2.343.273v.069c-.255-.062-.348-.072-.412-.341-.233.115-.162.09-.48.068v-.137c.141.027.132.017.206.068h.206v-.137a1.088,1.088,0,0,0-.549.068h-.343c.071-.055.017-.025.137-.068-.069-.1-1.345-.327-1.647-.546.018-.066-.021-.03.069-.068-.026-.456-.143-.3-.411-.478h-.068c.073-.051.063-.043.206-.068-.044-.118-.014-.067-.069-.136.114-.184-.011-.069.206-.068-.038-.323-.109-.307-.343-.41.027-.14.017-.132.068-.205l.068-.068v.068h.206v-.068a1.372,1.372,0,0,1-.274-.136c-.044-.1-.085-.03,0-.137-.128-.1-.23-.13-.343-.068-.171-.078-.156-.512-.411-.683-.2-.135-.961-.242-1.235-.478-.065-.056-.052-.232-.137-.273h-.618l-.206-.273a15.735,15.735,0,0,0-3.224-.819h-.138a3.016,3.016,0,0,0,1.235.478,14.044,14.044,0,0,1-2.333-.341,1.843,1.843,0,0,0-1.1.068c-.2-.083-.056-.024-.137-.2a16.791,16.791,0,0,0-3.979.409l-.823-.068c-.194.046-.346.283-.48.341h-.892c-.022.012-.086.186-.137.2-.44.164-1.081-.025-1.372.273h-.206v-.068a.594.594,0,0,0,.274-.2h.137v-.068a6.059,6.059,0,0,0-1.3.2c-.07.044-.08.232-.137.273l-.892.205c-.225.12-.406.416-.617.546-.314.194-.641.132-1.029.273-.233.085-.139.159-.274.341-.038-.067-.673.175-.823.273-.879.573-1.483,1.58-2.332,2.185v.136a1.938,1.938,0,0,0,.617-.546h.068a4.95,4.95,0,0,1-1.921,1.5c-.267.139-.374.5-.549.751-.447.638-1.251,1.077-1.715,1.707-.284.385-.246.65-.617.819.051.248-.007.19.206.273v.136c-.162-.06-.113-.026-.206-.136-.367.081-.377.352-.618.546a.787.787,0,0,0,.48.341c-.159.149-.383.191-.549.341-.017.016.121.165.068.273-.16.332-.773.446-.686.819-.085.069-.215-.026-.275.068v.341l-.274.205a10.823,10.823,0,0,1-.892,1.843c.1.17-.017.08.206.136-.023.114-.046.228-.068.341-.055-.08-.055-.114-.069-.273l-.069.068c-.655.523-.642,2.325-1.1,3.073v.068a4.726,4.726,0,0,0,.755-2.116h.206a.516.516,0,0,1,.069-.546c.1-.111.226-.119.343-.205.053-.055.233-.551.068-.615.1-.17.144-.138.412-.137-.114-.187-.015-.2,0-.614a.792.792,0,0,0,.206-.137c.463.205.071.731,0,1.229-.194.026-.144.063-.275,0-.171.1-.08-.017-.137.2h.343a2.121,2.121,0,0,1-.206.41v.137h-.206c-.027.14-.017.131-.068.2.047.187-.042.11.137.136-.029.283-.1.25.068.41a1.587,1.587,0,0,1-.48.478c.064.181.068.178.206.273a2.365,2.365,0,0,0-.206.547l.068.2c-.033.08-.248.24-.274.341-.069.266.147.517,0,.819l-.206.137c-.146.286.034.648-.137.751a.754.754,0,0,0,.206.136l-.137.137a1.842,1.842,0,0,0,0,.956l-.137-.068c-.012.216.118.1-.068.205.1.17-.017.08.206.136-.11.215-.045.083-.274.068v.137a1.151,1.151,0,0,1,.549.136h.137a.894.894,0,0,1-.343.409c.117.075.212.036.275.069l.137.068v.136a2.379,2.379,0,0,1-.412-.136c-.07.055-.017.025-.137.068.026.193.064.143,0,.273.078.138.136.115.412.137v.068h-.069a5.882,5.882,0,0,1-.618.068v.273c.185-.113.069.011.069-.2h.206c-.023.114-.046.228-.068.341.159-.015.194-.014.274-.068.171.1.081-.017.137.2.175-.1.119-.142.137-.409h.137a6.531,6.531,0,0,1,0,.819v.341a2.305,2.305,0,0,0-.892.068c.044.118.013.067.069.137v.068l.137-.137c.234.316-.067.706.206,1.161v.068c.039.135.068-.137.068-.137h.069c-.031.314-.058.36-.206.478.044.118.013.067.068.137.053.047.153.09.206.137h.411v.136l-.48-.068c0,.311-.1.2.137.341v.068l-.48.068c.068.049.274.089.343.137.131.156.369,1.372.137,1.57.08.055.115.055.274.068-.014.232.052.569-.069.751,0,0,.015.268.069.137l.068-.068c.171.536.431,1.365.686,1.98a3.072,3.072,0,0,1,.137.546c.1.17-.017.08.206.137-.264.462.306,1.338.549,1.912v.341c.054.123.286.3.343.41.168.318.139.639.275.955a15.712,15.712,0,0,0,2.127,4.027v.136h-.069c-.305-.583-.881-.924-1.166-1.5h-.206a4.523,4.523,0,0,0,.755,1.024c.41.565.724,1.1,1.1,1.706a7.231,7.231,0,0,0,.892,1.024l.206.069v.273a2.818,2.818,0,0,1,.48.273,7.718,7.718,0,0,1,1.3,1.638c.085.278-.048.914.068,1.434.07.313-.062.6,0,.956a16.047,16.047,0,0,1,0,5.531,1.56,1.56,0,0,0,.069.614q-.034.547-.069,1.092a3.447,3.447,0,0,1,0,1.5v3.687a11.673,11.673,0,0,0-.755,4.1,1.234,1.234,0,0,1,.206.273.982.982,0,0,0,.274-.068,11.621,11.621,0,0,0,.274-1.366q-.034-.273-.068-.546a5.982,5.982,0,0,1,.343-.819c.221-.6.333-1.481.48-2.048v-1.024a24.191,24.191,0,0,0,0-2.868c.3-3.246.19-6.325.48-9.353.992.479,1.366,1.268,2.4,1.775-.044.117-.013.066-.069.136-.014.35-.045.728.138.888v.068l.206-.068a2.149,2.149,0,0,0,.137-.752c.491.134,1.048.517,1.372.615s.42-.192.617-.136c.55.155,1.125.543,1.646.751.574.23,1.233.162,1.715.478h.274a.429.429,0,0,1-.137-.342,17.566,17.566,0,0,0,2.058.2v-.2a1.4,1.4,0,0,0-.48-.068v-.068a1.706,1.706,0,0,1,.618.136v.273a.911.911,0,0,1,.48.068c.117.186-.077.782.069,1.024l.068.2c.159-.015.193-.013.274-.068a2.374,2.374,0,0,0,.206-1.229,1.084,1.084,0,0,1,.549.068h.137a16.06,16.06,0,0,1-.275,3.686,4.876,4.876,0,0,0-.206,1.844v.614c.119.044.067.013.137.069a.729.729,0,0,0,.343-.137,17.858,17.858,0,0,1,.686-4.233c.139-.547.007-1.215.274-1.638-.014-.369-.021-.483.206-.615a1.23,1.23,0,0,1,.411-.068v.2a1.987,1.987,0,0,0-.343.137H937.4a.723.723,0,0,0,.411.068l.069.068a12.106,12.106,0,0,0-.069,2.253c.2.008.1.048.206,0,.41-.216.212-.87.343-1.365a4.677,4.677,0,0,1,.892-1.843,12.541,12.541,0,0,0,4.94-1.434l.754-.136c.625-.339,1.221-.962,1.852-1.3a9.193,9.193,0,0,1-.206,3.073v1.092a27.969,27.969,0,0,0,.206,3.414c.047.391-.115,1.3.137,1.706a1.573,1.573,0,0,0,.137.546c.19.033.2.082.343,0,.459-.24.152-1.578.137-2.321-.04-1.944-.371-4.89.069-6.691l.343-1.433c.657-1.462,2.19-2.361,3.156-3.549l.137-.409.48-.478-.068-.41c.055-.135.321-.234.412-.341.206-.242.186-.672.343-.955.246-.443,1.806-2.1,1.509-2.457.087-.075.281-.108.343-.2a17.111,17.111,0,0,0,.823-2.867l-.137-.615c.19-.932.31-2.1.411-3.072a19.922,19.922,0,0,1,.138-2.39v-1.3c.145-.642.06-1.543.206-2.185v-1.229a16.757,16.757,0,0,0,.206-2.663,1.113,1.113,0,0,0-.275-.409c.119-.044.067-.013.137-.068,0,0-.348-.524-.137-.682-.079-.152-.1-.1-.206-.205h-.069c.081-.055.115-.055.274-.068v-.068a.85.85,0,0,0-.274-.068.9.9,0,0,0-.137-.888v-.2c.181.119.1,0,.069.2h.343a9.586,9.586,0,0,0-.48-2.594c.083-.2.024-.056.206-.137-.073-.28-.08-.088-.206-.2l-.137-.068v-.136c.056.07.026.016.069.136h.137a1.829,1.829,0,0,1-.137-.41h.206a2.165,2.165,0,0,0,.274.682c-.1.17.017.08-.206.137.113.184-.011.069.206.068l.068.068c-.113.184.011.069-.206.068a3.992,3.992,0,0,0,.549,1.57v.136h.069c.042-.414.118-.7-.137-.956C956.044,1563.089,955.929,1563.174,956.13,1563.2Zm-39.036-5.189c.119.045.067.014.137.069C917.113,1558.037,917.165,1558.067,917.095,1558.012Zm-1.921,3.892v.136H915.1l.068-.273C915.217,1561.87,915.259,1561.8,915.173,1561.9Zm.137-.2h-.068v-.136h.068Zm-.686,8.739-.069.068v-.136c.118.044.067.013.137.068Zm.274,1.775c-.119-.044-.067-.014-.137-.068C914.88,1572.189,914.829,1572.158,914.9,1572.213Zm-.137.409c-.118-.044-.067-.013-.137-.068C914.743,1572.6,914.692,1572.568,914.762,1572.623Zm0,.956c.118.044.067.013.137.068C914.781,1573.6,914.832,1573.633,914.762,1573.578Zm.137-.273v.068c-.108-.13,0-.251-.206-.341.064-.164.075-.108.137-.273h.137C914.991,1573.008,915.04,1573.107,914.9,1573.305Zm-.274.888h.206C914.713,1574.254,914.743,1574.253,914.625,1574.193Zm.411.751h.137a.735.735,0,0,1-.068.41v.068h-.069A2.148,2.148,0,0,0,915.036,1574.944Zm-.068-.136v-.137c.119.044.067.013.137.068h-.069Zm.137,1.5c.118.044.067.013.137.068C915.124,1576.333,915.175,1576.364,915.1,1576.309Zm.068-.341c.056.07.026.017.069.136C915.1,1576.042,915.2,1576.119,915.173,1575.968Zm.137-.137h-.137l-.137-.273a1.052,1.052,0,0,1,.275.137Zm.755-14.542c-.141.027-.132.017-.206.068h-.206a2.084,2.084,0,0,1,.48-.888c.044-.118.013-.067.068-.137l.069.068A2.792,2.792,0,0,0,916.066,1561.29Zm.137-1.092c.118.044.067.013.138.068C916.221,1560.221,916.273,1560.252,916.2,1560.2Zm1.235-2.253h.206C917.525,1558.005,917.555,1558,917.438,1557.944Zm2.127,29.969H919.5l-.137-.273.206.137Zm24.011-38.093.068-.068a7.15,7.15,0,0,0,.755.409v.068a.77.77,0,0,1-.686-.341S943.444,1549.873,943.576,1549.82Zm-17.151.136c-.119-.044-.067-.013-.138-.068C926.406,1549.933,926.355,1549.9,926.425,1549.957Zm-.755.137c.118-.044.067-.013.137-.068h.275c-.059.045-.216.092-.275.136h-.137Zm-2.95,1.98c.024.035-.105.34-.206.273Zm1.441,41.1-.206-.069v-.136c.119.044.067.013.137.068h.069Zm9.468,3.277c.118.044.067.013.137.068C933.647,1596.47,933.7,1596.5,933.628,1596.446Zm.137-.477c.118.043.067.013.137.068C933.784,1595.992,933.835,1596.023,933.765,1595.968Zm.275.068c.118.044.067.013.137.068C934.058,1596.06,934.11,1596.091,934.04,1596.037Zm1.99.614c.118.044.067.014.137.069C936.048,1596.675,936.1,1596.706,936.03,1596.65Zm11.594-21.365c.34.154-.012.783-.069.956-.155.474-.079,1.331-.343,1.707-.04.057-.237.061-.274.137q-.034.41-.069.819a11.651,11.651,0,0,1-.411,1.5,19.689,19.689,0,0,1-1.3,1.98c-.418.666-.662,1.321-1.1,1.979a11.451,11.451,0,0,1-3.636,3.344c-1.469.859-5.8,1.978-7.821,1.433a13.245,13.245,0,0,1-3.43-1.365c-.472-.3-.919-.77-1.372-1.092a9.4,9.4,0,0,1-1.784-1.229,5.373,5.373,0,0,1-.961-1.228c-.24-.621-.134-1.133-.343-1.843-.242-.823-.464-1.621-.755-2.526a7.931,7.931,0,0,0-.618-1.98v-.068h.137a.863.863,0,0,1,.069.273h.069a1.077,1.077,0,0,0-.069-.546v-.068c-.17.1-.109.029-.137.273-.338-.418-.233-1.167-.343-1.638-.129-.554-.386-1.286-.549-1.775a2.74,2.74,0,0,1-.069-1.161l.069-.068c-.228-.307-.181-.588-.275-1.092a14.639,14.639,0,0,1-.137-2.731,5.032,5.032,0,0,0,.137-.751,7.349,7.349,0,0,1,.343-2.868,2.289,2.289,0,0,1,.137-1.229c.094-.208.334-.323.48-.478a10.553,10.553,0,0,0,.617-.956c.256-.34.691-.57.96-.888a16.566,16.566,0,0,1,3.568-3.072c.313-.191.66-.22.961-.409a10.579,10.579,0,0,1,1.1-.751,21.251,21.251,0,0,1,2.607-.751c.381-.112.652.2.755.2.156-.09.107-.147.206-.273a2.182,2.182,0,0,1,2.058,0c.288-.04.206.012.206-.2.291.1.147.005.137.273.119-.044.067-.013.137-.068.235.078.138-.011.137.2h.343l-.137-.136c.118-.044.067-.013.137-.068.289.038.2-.05.206.2a.984.984,0,0,1,.48-.136v.068l-.274.068a.729.729,0,0,0,.343.273v-.068c-.018-.066.02-.03-.069-.068v-.069a1.112,1.112,0,0,0,.618,0c-.028.14-.017.131-.069.2a2.231,2.231,0,0,0,.617.2v-.068l.069-.068a1.031,1.031,0,0,0-.549-.068v-.136a9.042,9.042,0,0,1,2.47.751h.069l-.069.137c.119.041.376,0,.549.068.253.093.446.257.412.478.179.143.251-.062.411,0,.333.129.592.5.892.682a18.4,18.4,0,0,0,.48,4.1c0,.427.062.483.343.614a8.78,8.78,0,0,0-.069-2.867c-.07-.318.071-.734-.068-.956v-.341a3.661,3.661,0,0,1,1.029.888h.275l-.137-.137v-.068c.544.09.135.243.343.546l.275.136-.069.137a8.624,8.624,0,0,1,1.51,2.936l.206,1.366a20.674,20.674,0,0,1,.549,2.458c.051.24-.176.46-.137.614s.239.5.275.683l.068,1.844-.137.136c-.123.454.137,1.013.137,1.57C947.967,1573.93,948.051,1574.935,947.624,1575.285Zm1.029-21.847.137.068c-.053.047-.153.09-.206.136h-.068C948.578,1553.5,948.575,1553.544,948.652,1553.438Zm6.517,10.582v.273h-.137v-.41Zm.48-2.321h-.068v-.136h.068Zm.137.341h.138C955.861,1562.162,955.9,1562.117,955.787,1562.041Zm-68.4-13.859c.08.055.115.055.274.068C887.583,1548.195,887.548,1548.2,887.389,1548.182Zm55.226.478h-.137c-.074.052-.063.043-.205.068v.068h.343Zm-55.844.137h-.137c.07.055.017.025.137.068Zm.755.2v.136h.137V1549Zm55.707.068a.576.576,0,0,0,.343.068A.576.576,0,0,0,943.233,1549.069Zm1.44.273v-.068a1.98,1.98,0,0,0-.754-.2c.141.129.395.157.549.273Zm-57.7.478a1.584,1.584,0,0,0-.206.273h-.137v.068a.532.532,0,0,0,.412-.273l.068-.068Zm.823.2h-.138C887.772,1550.109,887.719,1550.135,887.8,1550.025Zm.549.136a.885.885,0,0,0-.274-.068l-.069.2c.141-.027.132-.017.206-.068C888.331,1550.186,888.279,1550.217,888.349,1550.161Zm-1.235.068v-.068h-.137C887.048,1550.217,886.994,1550.187,887.115,1550.23Zm-1.029.683v-.068h-.137C886.019,1550.9,885.965,1550.869,886.085,1550.912Zm2.744,0c.074.052.063.043.206.068C888.962,1550.929,888.972,1550.938,888.829,1550.912Zm57.491.478h.137v-.069a2.827,2.827,0,0,0-.617-.273C945.969,1551.226,946.161,1551.25,946.32,1551.391Zm-57.971.2v-.136a2.816,2.816,0,0,1-.686-.2v.2a3.2,3.2,0,0,1,.48.136Zm-.755-.136v-.137h-.137C887.469,1551.508,887.407,1551.408,887.595,1551.459Zm59.274.136a.684.684,0,0,0-.411-.136C946.577,1551.594,946.6,1551.589,946.869,1551.595Zm-60.1,0h-.137c-.074.052-.063.043-.206.068v.068h.343Zm59.549.068h-.137C946.291,1551.747,946.239,1551.773,946.32,1551.663Zm-59.411.137c.2.232.291.1.274.409.159-.076.125-.063.206-.2h.069a2.034,2.034,0,0,0-.411-.273C886.975,1551.787,887.029,1551.757,886.909,1551.8Zm1.441.068v-.136h-.137v.136Zm-36.223.205v-.137a.9.9,0,0,0-.275-.068c.063.147.06.1.137.205Zm94.605-.137h-.137c.07.055.017.025.137.068Zm-58.794.273a1.177,1.177,0,0,0-.48-.2c-.06.161-.026.113-.137.2.116.086.307.113.412.205C888,1552.295,887.68,1552.3,887.938,1552.209Zm59,0h.069v-.136L946.8,1552C946.863,1552.152,946.86,1552.1,946.937,1552.209Zm-58.519-.136h-.137c-.071.055-.017.025-.137.068v.068c.141-.027.132-.017.206-.068Zm-1.852.136v-.068h-.137C886.5,1552.2,886.445,1552.167,886.566,1552.209Zm59.617.205h.069c-.044-.118-.014-.067-.069-.137Zm-58.108-.068h-.137v.136h.137Zm59.205.273h.274c-.149-.294-.476-.246-.892-.273C946.6,1552.639,946.991,1552.441,947.281,1552.619Zm-94.4.273a.576.576,0,0,0,.343.068A.576.576,0,0,0,852.881,1552.892Zm95.977.2h-.137c.071.055.017.025.137.068Zm-27.579.137.069-.069h-.137C921.146,1553.237,921.232,1553.243,921.279,1553.234Zm-66,0v.136C855.4,1553.307,855.359,1553.347,855.282,1553.234Zm65.654.136a.922.922,0,0,0-.137.273l.068-.068C921,1553.441,920.969,1553.516,920.936,1553.37Zm-65.243.273v-.136h-.137C855.569,1553.692,855.507,1553.593,855.694,1553.643Zm2.2,0c-.171.1-.081-.017-.138.205h.343C858.015,1553.7,858,1553.746,857.889,1553.643Zm92.135.273h.068c-.058-.233-.034-.174-.206-.273-.071.055-.017.025-.137.068l.069.068C949.872,1553.827,949.972,1553.87,950.025,1553.916Zm-92.959,0c.159-.015.193-.013.274-.068h.069a1.221,1.221,0,0,0-.274-.137Zm92.478,0v-.136h-.137C949.419,1553.966,949.357,1553.866,949.544,1553.916Zm1.1.273c-.06-.161-.026-.113-.137-.205-.071.055-.017.025-.137.068l.069.137Zm-.961-.137c.011.174-.022.1.206.2v-.068l.068-.068A.864.864,0,0,0,949.682,1554.053Zm.549.41c-.1-.17.017-.08-.206-.137C950.118,1554.435,950.067,1554.4,950.23,1554.463Zm-.275.273v-.273h-.274l.137.137c-.074.052-.064.043-.206.068A.572.572,0,0,0,949.956,1554.736Zm.137.068c.119-.044.067-.013.137-.068.118-.044.067-.013.137-.068l-.206-.068Zm-75.327,0c-.044-.118-.013-.067-.069-.137v.137Zm74.093-.137c.074.052.063.043.206.068C948.99,1554.684,949,1554.693,948.858,1554.667Zm-74.024.273H874.7c.044.118.014.067.069.136v-.068Zm75.739.068v-.068h-.137C950.507,1555,950.453,1554.965,950.574,1555.009Zm.343.137h-.137v.136h.137Zm-11.251,2.936h.343v-.069c-.26-.061-.371-.155-.617-.2C939.4,1558.055,939.431,1557.912,939.665,1558.081Zm-22.914.341h-.137c.038.119-.112.06,0,.205C916.65,1558.673,916.743,1558.434,916.752,1558.422Zm.137,0c.071.055.017.025.137.068v-.068Zm24.286.068c.063.147.06.1.137.2h.206v-.136l-.068-.068Zm.686.615h.275v-.068a.885.885,0,0,0-.275-.068Zm11.526.136h.069c-.06-.219.037-.1-.137-.2.044.118.014.067.069.136Zm.892,0v.137C954.4,1559.314,954.354,1559.355,954.278,1559.241Zm-.206.409h-.137c.071.055.017.026.137.068Zm.823.478h-.137v.137h.137Zm-.137.2h-.137c.07.055.017.025.137.068Zm.069.273.137.137h.068l-.068-.41h-.137A.542.542,0,0,1,954.827,1560.607Zm.274-.2v.137h.068C955.126,1560.421,955.156,1560.472,955.1,1560.4Zm-.618.273c.087.126.034-.01.137-.068v-.136h-.275A.786.786,0,0,0,954.484,1560.675Zm.686.136h.138c-.06-.22.037-.105-.138-.2Zm-10.084.273v.136C945.207,1561.158,945.162,1561.2,945.085,1561.085Zm.206.273v.136h.069C945.315,1561.377,945.346,1561.428,945.291,1561.358Zm.069.2c-.028.188.007.1.068.341h.206A.519.519,0,0,0,945.359,1561.563Zm-29.569.205-.206-.069v.137h.206Zm-.274.614h-.137C915.488,1562.465,915.435,1562.492,915.517,1562.382Zm-.892,1.092h.137v-.137h-.137Zm.137.683h.069c.044-.118.013-.067.068-.137-.1-.17.017-.08-.206-.137A.863.863,0,0,1,914.762,1564.157Zm0,.478c-.081-.08-.061-.03-.206-.068C914.674,1564.661,914.593,1564.729,914.762,1564.635Zm41.231.273h-.137C955.964,1564.992,955.912,1565.018,955.993,1564.908Zm-.343.342c-.06-.162-.026-.113-.137-.205C955.515,1565.235,955.426,1565.146,955.65,1565.25Zm.206.478h-.137c.07.055.017.025.137.068Zm-42.123.478c-.041-.213-.012-.166-.137-.273a1.976,1.976,0,0,1-.137.546v.137h.069A.9.9,0,0,1,913.733,1566.205Zm-.343.819c.047-.052.09-.152.137-.2-.091-.166.032-.048-.137-.136-.023.068-.046.136-.069.2h.069Zm.823-.136c-.145.015-.008.1.068.136C914.35,1566.924,914.237,1566.908,914.213,1566.888Zm-.961.546v.136h.069C913.277,1567.453,913.308,1567.5,913.253,1567.434Zm-.206.956v.137h.069C913.071,1568.408,913.1,1568.46,913.047,1568.39Zm.823.41h.137v-.341h-.137Zm-.686.273c.068-.1-.045-.116-.069-.137C912.97,1568.951,913.108,1569.04,913.184,1569.073Zm.96.546v-.068h-.138C914.078,1569.606,914.024,1569.576,914.145,1569.619Zm-.275.2h.069c-.044-.118-.013-.067-.069-.137Zm-.618.341c-.054-.14.1-.064-.068-.205C913.2,1570.026,913.128,1570.206,913.253,1570.165Zm.686-.136v-.069H913.8C913.872,1570.015,913.819,1569.985,913.939,1570.029Zm.206,1.706.274.137c.069-.235-.04-.377.137-.547v-.068c-.225.09-.2.191-.343.341a.756.756,0,0,0-.206-.341,2.632,2.632,0,0,1,0,.683C914.178,1571.84,914.088,1571.957,914.145,1571.735Zm-58.411,2.741c-.089-.059-.076-.048-.248-.077C855.574,1574.457,855.562,1574.448,855.734,1574.476Zm.083.155h.083c-.053-.133-.016-.076-.083-.155Zm-.165.309h.5v-.155h-.5Zm.165.154c.089.059.076.048.248.078C855.976,1575.113,855.988,1575.123,855.816,1575.094Zm55.927-2.812c-.074-.052-.063-.043-.206-.068C911.611,1572.265,911.6,1572.256,911.743,1572.281Zm-54.934,3.431v-.154l-.579-.077v.155c.228.041.235.013.331.077Zm.413,0-.165-.154C856.947,1575.665,857,1575.782,857.223,1575.712Zm-1.241.155h.331v-.077a1.118,1.118,0,0,0-.331-.078Zm1.655-.155h-.166c.085.062.02.029.166.078Zm56.439-2.68v.068h.069v-.41h-.138A.59.59,0,0,0,914.076,1573.032Zm-57.019,2.912v-.078h-.166C856.977,1575.929,856.912,1575.9,857.057,1575.944Zm-35.99,0H820.9c.085.062.021.028.166.077Zm36.239.85c.332-.086.427-.024.248-.232-.089.058-.077.048-.248.077Zm1.076,0c.089.059.077.048.248.077C858.541,1576.813,858.553,1576.823,858.381,1576.794Zm55.832-3.147h-.137c.027.14.017.131.069.2v.068h.068Zm-95.132,3.456v-.078h-.166C819,1577.088,818.936,1577.054,819.082,1577.1Zm39.052,0v.154C858.279,1577.186,858.225,1577.232,858.133,1577.1Zm.331.464c.393-.1.09-.118.331-.309-.089-.059-.076-.048-.248-.077l-.166.309Zm55.681-3.442h.068c-.044-.118-.014-.067-.068-.136Zm-55.35,3.365c.089.059.077.049.248.078C858.954,1577.508,858.966,1577.518,858.795,1577.489Zm-1.82.387.083.154c.468,0,.4.068.414-.232l1.076.078a3.844,3.844,0,0,0-1.241-.309C857.195,1577.761,857.219,1577.79,856.974,1577.876Zm2.482-.232v-.078h-.165C859.376,1577.629,859.312,1577.6,859.457,1577.644Zm53.521-3.11h.069c-.074-.051-.063-.043-.206-.068v.137C912.96,1574.558,912.908,1574.589,912.978,1574.534Zm-55.259,3.342c-.052.258-.01.122.083.386.271-.056.193-.079.414-.155C858.1,1577.932,857.926,1577.939,857.719,1577.876Zm1.158.077c-.1-.062-.138-.062-.331-.077C858.644,1577.938,858.685,1577.938,858.878,1577.953Zm54.307-3.077h.068c-.044-.118-.013-.067-.068-.137Zm.343,0c-.045-.118-.014-.067-.069-.137v.137Zm-56.056,3.386h.083c-.053-.133-.016-.076-.083-.155Zm1.572-.155a.933.933,0,0,1,.083.309h.248a1.01,1.01,0,0,1-.166-.309Zm-.579.309v-.078l.083-.077h-.166C858.435,1578.4,858.4,1578.338,858.464,1578.417Zm-1.655.154h-.083v.077c.192-.018.234-.015.331-.077.06-.108.027-.1-.083-.232C856.927,1578.615,856.932,1578.419,856.809,1578.571Zm.5,0c-.175.017-.009.117.083.155C857.471,1578.612,857.335,1578.595,857.306,1578.571Zm.579.155v-.078h-.166C857.8,1578.711,857.74,1578.677,857.885,1578.726Zm54.27-3.3c.124.068.124.017.343,0v-.068l-.206-.068c-.081.055-.115.055-.274.068C912.089,1575.408,912.035,1575.379,912.155,1575.422Zm1.029,0v-.068h-.138C913.117,1575.408,913.064,1575.379,913.184,1575.422Zm-56.375,4.54c.206-.095-.042-.173-.083-.232C856.672,1579.791,856.65,1580.035,856.809,1579.962Zm-.083.232v-.077l-.248-.077C856.5,1580.243,856.43,1580.16,856.726,1580.193Zm38.689-1.221v-.068h-.137C895.349,1578.959,895.3,1578.929,895.416,1578.972Zm.206-.068a.9.9,0,0,0,.48.068A.9.9,0,0,0,895.622,1578.9Zm28.265.068a2.268,2.268,0,0,1,.206.751h.138a2.2,2.2,0,0,1-.138-.683Zm.823.478h.068c-.044-.118-.013-.067-.068-.136Zm-68.4,8.16h.166v-.154h-.166Zm61.673-1.675h-.137c.071.055.017.025.137.068Zm-61.094,6c.083-.114-.054-.131-.083-.154C856.634,1591.8,856.8,1591.9,856.892,1591.935Zm15.473-4.909h.069c-.044-.117-.013-.067-.069-.136Zm-15.473,4.986c.031.311.143.244-.083.386v.078h.331A.681.681,0,0,0,856.892,1592.012Zm-.166.618c-.089-.058-.076-.048-.248-.077v.232l.165-.078Zm.5,0h-.165c.085.062.02.028.165.077Zm-.91.077-.083.232C856.469,1592.84,856.46,1592.888,856.313,1592.707Zm.5.078h-.166c-.1.235-.027.178-.331.231.053.133.016.076.083.155v.077A.791.791,0,0,0,856.809,1592.785Zm.165.464c-.121-.193.02-.091-.248-.155C856.743,1593.3,856.679,1593.214,856.974,1593.249Zm.083.232c-.067-.079-.031-.019-.083-.154h-.248c.073.182.031.127.166.232.054.133.016.075.083.154Zm-.5.155h.083c-.053-.134-.016-.076-.083-.155Zm.579.155h-.166v.154h.166Zm-1.241.232v-.078l-.248-.077C855.763,1593.99,855.7,1593.956,855.9,1594.021Zm.331.077h-.166c.085.062.02.029.166.077Zm.248.154v-.077h-.166C856.4,1594.238,856.333,1594.2,856.478,1594.253Zm.827,0c-.1-.09-.073-.034-.248-.077C857.2,1594.282,857.1,1594.36,857.306,1594.253Zm-.165.309h.165c-.033-.159-.021-.148-.083-.232Zm.5,0h.083c-.053-.133-.016-.075-.083-.154Zm13.9-5.215H871.4v.136h.137Zm-15.394,5.6c-.175.017-.009.117.083.154C856.313,1594.989,856.176,1594.971,856.147,1594.948Zm15.325-5.124c.016.158.014.193.069.273v.137h.137q-.034-.205-.069-.41Zm43.5,1.024c.119-.062.078-.025,0-.131l0,.007Zm-43.152.205v.2h.137C871.893,1591.1,871.927,1591.145,871.816,1591.053Zm.137.682a.569.569,0,0,0,.069-.341h-.137Zm43.7,3.96h.069c-.027-.14-.017-.131-.069-.2Zm-.206.136v.068h.069v-.272h-.137C915.407,1595.767,915.4,1595.758,915.448,1595.831Zm13.309.205h.206v-.137l-.343-.068C928.683,1595.979,928.68,1595.931,928.757,1596.037Zm-12.966.068c.035.045.129-.194.138-.205h-.138C915.828,1596.018,915.679,1595.959,915.791,1596.1Zm-.206.273h.069c-.044-.117-.013-.066-.069-.136Zm17.357.615v-.068l.069-.068a1.78,1.78,0,0,0-.617-.136A.77.77,0,0,0,932.942,1596.992Zm-19.072-.2c-.145.015-.008.1.069.137C914.007,1596.823,913.894,1596.808,913.87,1596.787Zm-.618.683v.137C913.374,1597.543,913.329,1597.583,913.253,1597.47Zm17.22,9.149-.412.409c-.1.183-.04.481-.069.546a.9.9,0,0,0,.137.547c.159-.015.194-.014.274-.068a3.6,3.6,0,0,0,.275-2.39C930.538,1605.938,930.642,1606.2,930.473,1606.618Zm-1.715,8.329a4.586,4.586,0,0,1-.206-.751l-.068-.068h-.275c-.124.979-.356,2.276-.549,3.072q-.034,1.3-.068,2.594c-.144.556-.55,1.816-.137,2.458l.069.2a1.251,1.251,0,0,0,.411-.068c.082-.412-.049-1.082.069-1.57.111-.462.357-.9.48-1.365a12.9,12.9,0,0,0,.137-3.618C928.542,1615.434,928.811,1615.2,928.757,1614.947Z" transform="translate(-818.916 -1543.533)" fill="#080808" stroke="rgba(0,0,0,0)" stroke-miterlimit="10" stroke-width="1" fill-rule="evenodd"/>
    </g>
  </g>
</svg>
